<svg id="SvgjsSvg1000" xmlns="http://www.w3.org/2000/svg" version="1.1" xmlns:xlink="http://www.w3.org/1999/xlink" xmlns:svgjs="http://svgjs.com/svgjs" width="41" height="41"><defs id="SvgjsDefs1001"><clipPath id="SvgjsClipPath1009"><path id="SvgjsPath1008" d="M1671 7819.5C1671 7808.17816 1680.17816 7799 1691.5 7799C1702.82184 7799 1712 7808.17816 1712 7819.5C1712 7830.82184 1702.82184 7840 1691.5 7840C1680.17816 7840 1671 7830.82184 1671 7819.5Z " fill="#ffffff"></path></clipPath></defs><path id="SvgjsPath1007" d="M1671 7819.5C1671 7808.17816 1680.17816 7799 1691.5 7799C1702.82184 7799 1712 7808.17816 1712 7819.5C1712 7830.82184 1702.82184 7840 1691.5 7840C1680.17816 7840 1671 7830.82184 1671 7819.5Z " fill-opacity="0" fill="#ffffff" stroke-dasharray="0" stroke-linejoin="miter" stroke-linecap="butt" stroke-opacity="1" stroke="#d1d1d1" stroke-miterlimit="50" stroke-width="6" clip-path="url(&quot;#SvgjsClipPath1009&quot;)" transform="matrix(1,0,0,1,-1671,-7799)"></path><path id="SvgjsPath1010" d="M1690.25 7814.25L1695.55 7819.55 " fill-opacity="0" fill="#ffffff" stroke-dasharray="0" stroke-linejoin="miter" stroke-linecap="square" stroke-opacity="1" stroke="#d1b38c" stroke-miterlimit="50" stroke-width="1" transform="matrix(1,0,0,1,-1671,-7799)"></path><path id="SvgjsPath1011" d="M1695.55 7819.25L1690.25 7824.55 " fill-opacity="0" fill="#ffffff" stroke-dasharray="0" stroke-linejoin="miter" stroke-linecap="square" stroke-opacity="1" stroke="#d1b38c" stroke-miterlimit="50" stroke-width="1" transform="matrix(1,0,0,1,-1671,-7799)"></path></svg>