<svg id="SvgjsSvg1008" xmlns="http://www.w3.org/2000/svg" version="1.1" xmlns:xlink="http://www.w3.org/1999/xlink" xmlns:svgjs="http://svgjs.com/svgjs" width="90" height="96"><defs id="SvgjsDefs1009"></defs><path id="SvgjsPath1010" d="M1399.38 12510.8L1374.38 12510.8L1378.8100000000002 12506.39C1379.4400000000003 12505.76 1379.4400000000003 12504.75 1378.8100000000002 12504.119999999999L1373.13 12498.47C1372.5100000000002 12497.84 1371.49 12497.84 1370.8600000000001 12498.47L1368.0400000000002 12501.279999999999L1368.0400000000002 12496.4C1368.9200000000003 12496.4 1369.64 12495.68 1369.64 12494.8L1369.64 12488.4C1369.64 12487.52 1368.92 12486.8 1368.0400000000002 12486.8L1351.9600000000003 12486.8C1351.0800000000002 12486.8 1350.3600000000004 12487.519999999999 1350.3600000000004 12488.4L1350.3600000000004 12494.8C1350.3600000000004 12495.679999999998 1351.0800000000004 12496.4 1351.9600000000003 12496.4L1351.9600000000003 12501.59L1348.8300000000002 12498.47C1348.2 12497.84 1347.19 12497.84 1346.5600000000002 12498.47L1340.88 12504.119999999999C1340.25 12504.749999999998 1340.25 12505.759999999998 1340.88 12506.39L1345.3100000000002 12510.8L1320.63 12510.8C1317.5200000000002 12510.8 1315 12513.31 1315 12516.4C1315 12518.72 1316.42 12520.71 1318.44 12521.56C1320.4 12534.3 1335.8700000000001 12544.359999999999 1355.18 12545.81L1355.18 12552.4C1355.18 12553.279999999999 1355.9 12554 1356.79 12554L1363.21 12554C1364.1000000000001 12554 1364.82 12553.28 1364.82 12552.4L1364.82 12545.81C1384.1299999999999 12544.359999999999 1399.6 12534.3 1401.56 12521.56C1403.58 12520.71 1405 12518.72 1405 12516.4C1405 12513.31 1402.48 12510.8 1399.38 12510.8ZM1321.78 12522L1398.22 12522C1395.69 12533.8 1379.43 12542.8 1360 12542.8C1340.57 12542.8 1324.32 12533.8 1321.78 12522ZM1347.14 12496.4C1348.0300000000002 12496.4 1348.75 12495.68 1348.75 12494.8C1348.75 12493.92 1348.03 12493.199999999999 1347.14 12493.199999999999L1319.8200000000002 12493.199999999999L1319.8200000000002 12459.599999999999C1319.8200000000002 12458.72 1319.1000000000001 12457.999999999998 1318.2100000000003 12457.999999999998C1317.3300000000002 12457.999999999998 1316.6100000000004 12458.719999999998 1316.6100000000004 12459.599999999999L1316.6100000000004 12494.8C1316.6100000000004 12495.679999999998 1317.3300000000004 12496.4 1318.2100000000003 12496.4ZM1401.79 12496.4C1402.67 12496.4 1403.3899999999999 12495.68 1403.3899999999999 12494.8L1403.3899999999999 12459.599999999999C1403.3899999999999 12458.72 1402.6699999999998 12457.999999999998 1401.79 12457.999999999998C1400.8999999999999 12457.999999999998 1400.18 12458.719999999998 1400.18 12459.599999999999L1400.18 12493.199999999999L1372.8600000000001 12493.199999999999C1371.97 12493.199999999999 1371.2500000000002 12493.919999999998 1371.2500000000002 12494.8C1371.2500000000002 12495.679999999998 1371.9700000000003 12496.4 1372.8600000000001 12496.4ZM1347.14 12490C1348.0300000000002 12490 1348.75 12489.28 1348.75 12488.4C1348.75 12487.52 1348.03 12486.8 1347.14 12486.8L1326.25 12486.8L1326.25 12459.599999999999C1326.25 12458.72 1325.53 12457.999999999998 1324.64 12457.999999999998C1323.75 12457.999999999998 1323.0400000000002 12458.719999999998 1323.0400000000002 12459.599999999999L1323.0400000000002 12488.399999999998C1323.0400000000002 12489.279999999997 1323.7500000000002 12489.999999999998 1324.64 12489.999999999998ZM1395.36 12490C1396.25 12490 1396.9599999999998 12489.28 1396.9599999999998 12488.4L1396.9599999999998 12459.6C1396.9599999999998 12458.720000000001 1396.2499999999998 12458 1395.36 12458C1394.4699999999998 12458 1393.75 12458.72 1393.75 12459.6L1393.75 12486.800000000001L1372.86 12486.800000000001C1371.9699999999998 12486.800000000001 1371.25 12487.52 1371.25 12488.400000000001C1371.25 12489.28 1371.97 12490.000000000002 1372.86 12490.000000000002ZM1399.82 12518.75C1399.6699999999998 12518.78 1399.53 12518.8 1399.3799999999999 12518.8L1320.6299999999999 12518.8C1320.4699999999998 12518.8 1320.33 12518.779999999999 1320.1799999999998 12518.75C1320.1799999999998 12518.75 1320.1699999999998 12518.76 1320.1699999999998 12518.75C1319.06 12518.54 1318.2099999999998 12517.57 1318.2099999999998 12516.4C1318.2099999999998 12515.08 1319.2999999999997 12514 1320.6299999999999 12514L1399.3799999999999 12514C1400.6999999999998 12514 1401.79 12515.08 1401.79 12516.4C1401.79 12517.57 1400.94 12518.539999999999 1399.83 12518.75ZM1364.82 12510.8L1355.1799999999998 12510.8L1355.1799999999998 12496.4L1364.82 12496.4ZM1347.69 12501.86L1351.96 12506.11L1351.96 12510.800000000001L1349.8500000000001 12510.800000000001L1344.2900000000002 12505.26ZM1375.41 12505.26L1369.8400000000001 12510.800000000001L1368.0400000000002 12510.800000000001L1368.0400000000002 12505.810000000001L1372.0000000000002 12501.86ZM1385.24 12478.33L1388.46 12475.13C1389.0900000000001 12474.509999999998 1389.0900000000001 12473.49 1388.46 12472.869999999999C1387.83 12472.24 1386.81 12472.24 1386.19 12472.869999999999L1382.97 12476.07C1382.34 12476.69 1382.34 12477.71 1382.97 12478.33C1383.28 12478.64 1383.7 12478.8 1384.1100000000001 12478.8C1384.5200000000002 12478.8 1384.93 12478.64 1385.2400000000002 12478.33ZM1366.43 12490L1366.43 12493.2L1353.5700000000002 12493.2L1353.5700000000002 12490ZM1361.61 12550.8L1358.3899999999999 12550.8L1358.3899999999999 12546L1361.61 12546ZM1385.71 12480.4C1385.71 12480.83 1385.89 12481.23 1386.18 12481.539999999999C1386.48 12481.82 1386.89 12481.999999999998 1387.3200000000002 12481.999999999998C1387.7600000000002 12481.999999999998 1388.17 12481.819999999998 1388.4600000000003 12481.539999999999C1388.7500000000002 12481.23 1388.9300000000003 12480.82 1388.9300000000003 12480.4C1388.9300000000003 12479.98 1388.7500000000002 12479.57 1388.4600000000003 12479.26C1387.8800000000003 12478.67 1386.7800000000002 12478.67 1386.1800000000003 12479.26C1385.8900000000003 12479.57 1385.7100000000003 12479.97 1385.7100000000003 12480.4ZM1382.03 12481.54C1382.32 12481.230000000001 1382.5 12480.820000000002 1382.5 12480.400000000001C1382.5 12479.980000000001 1382.32 12479.570000000002 1382.03 12479.260000000002C1381.44 12478.670000000002 1380.35 12478.670000000002 1379.75 12479.260000000002C1379.46 12479.570000000002 1379.29 12479.980000000001 1379.29 12480.400000000001C1379.29 12480.820000000002 1379.46 12481.230000000001 1379.75 12481.54C1380.06 12481.820000000002 1380.48 12482 1380.89 12482C1381.3100000000002 12482 1381.73 12481.82 1382.0300000000002 12481.54Z " fill="#9d9d9d" fill-opacity="1" transform="matrix(1,0,0,1,-1315,-12458)"></path></svg>