<svg id="SvgjsSvg1000" xmlns="http://www.w3.org/2000/svg" version="1.1" xmlns:xlink="http://www.w3.org/1999/xlink" xmlns:svgjs="http://svgjs.com/svgjs" width="91" height="97"><defs id="SvgjsDefs1001"></defs><path id="SvgjsPath1007" d="M604.66 12548.87C604.65 12548.87 600.38 12548.87 600.37 12548.87C600.35 12548.87 522.33 12548.87 522.31 12548.87L518.02 12548.87C516.9 12548.87 516 12547.960000000001 516 12546.84C516 12545.73 516.9 12544.82 518.02 12544.82L520.34 12544.82L520.34 12496.619999999999L518.02 12496.619999999999C516.9 12496.619999999999 516 12495.71 516 12494.599999999999C516 12493.479999999998 516.9 12492.569999999998 518.02 12492.569999999998L571.74 12492.569999999998C569.73 12490.359999999999 568.51 12487.429999999998 568.51 12484.209999999997L568.51 12481.169999999996C568.51 12480.949999999997 568.52 12480.719999999996 568.53 12480.469999999996C568.5899999999999 12479.389999999996 569.47 12478.549999999996 570.54 12478.549999999996L591.18 12478.549999999996C592.26 12478.549999999996 593.14 12479.389999999996 593.1999999999999 12480.469999999996C593.2099999999999 12480.729999999996 593.2199999999999 12480.959999999995 593.2199999999999 12481.169999999996L593.2199999999999 12484.209999999997C593.2199999999999 12487.429999999997 591.9899999999999 12490.359999999997 589.9899999999999 12492.569999999998L604.6599999999999 12492.569999999998C605.7799999999999 12492.569999999998 606.6799999999998 12493.479999999998 606.6799999999998 12494.599999999999C606.6799999999998 12495.71 605.7799999999999 12496.619999999999 604.6599999999999 12496.619999999999L602.3799999999999 12496.619999999999L602.3799999999999 12544.82L604.6599999999999 12544.82C605.7799999999999 12544.82 606.6799999999998 12545.73 606.6799999999998 12546.84C606.6799999999998 12547.960000000001 605.7799999999999 12548.87 604.6599999999999 12548.87ZM524.37 12496.62L524.37 12544.820000000002L559.35 12544.820000000002L559.35 12496.62ZM563.38 12496.62L563.38 12544.820000000002L598.35 12544.820000000002L598.35 12496.62ZM522.32 12452C522.36 12452 532.5300000000001 12452 532.5600000000001 12452C532.59 12452 561.36 12452 561.4000000000001 12452C562.5100000000001 12452 563.4200000000001 12452.91 563.4200000000001 12454.03C563.4200000000001 12455.150000000001 562.5100000000001 12456.050000000001 561.4000000000001 12456.050000000001L553.2200000000001 12456.050000000001L553.2200000000001 12467.670000000002C555.8400000000001 12468.530000000002 557.7400000000001 12471.000000000002 557.7400000000001 12473.910000000002L557.7400000000001 12480.150000000001C557.7400000000001 12481.270000000002 556.8300000000002 12482.180000000002 555.7200000000001 12482.180000000002L546.6900000000002 12482.180000000002C545.5800000000002 12482.180000000002 544.6700000000002 12481.270000000002 544.6700000000002 12480.150000000001L544.6700000000002 12473.910000000002C544.6700000000002 12471.000000000002 546.5700000000002 12468.520000000002 549.1900000000002 12467.670000000002L549.1900000000002 12456.050000000001L534.5300000000002 12456.050000000001L534.5300000000002 12467.670000000002C537.1500000000002 12468.530000000002 539.0500000000002 12471.000000000002 539.0500000000002 12473.910000000002L539.0500000000002 12475.62C539.0500000000002 12479.230000000001 536.1200000000002 12482.18 532.5100000000002 12482.18C528.9100000000002 12482.18 525.9800000000002 12479.23 525.9800000000002 12475.62L525.9800000000002 12473.910000000002C525.9800000000002 12471.000000000002 527.8800000000002 12468.520000000002 530.5000000000002 12467.670000000002L530.5000000000002 12456.050000000001L522.3200000000003 12456.050000000001C521.2100000000003 12456.050000000001 520.3000000000003 12455.150000000001 520.3000000000003 12454.03C520.3000000000003 12452.91 521.2100000000003 12452 522.3200000000003 12452ZM569.56 12514.76C569.56 12513.64 570.4599999999999 12512.74 571.5799999999999 12512.74L590.15 12512.74C591.26 12512.74 592.17 12513.64 592.17 12514.76L592.17 12536.74C592.17 12537.86 591.26 12538.77 590.15 12538.77L571.5799999999999 12538.77C570.4599999999999 12538.77 569.56 12537.86 569.56 12536.74ZM588.13 12534.72L588.13 12516.789999999999L573.59 12516.789999999999L573.59 12534.72ZM580.86 12492.57C585.45 12492.57 589.19 12488.82 589.19 12484.21L589.19 12482.599999999999L572.5400000000001 12482.599999999999L572.5400000000001 12484.21C572.5400000000001 12488.82 576.2800000000001 12492.57 580.8600000000001 12492.57ZM574.72 12468.03C576.09 12466.49 575.61 12465.230000000001 573.98 12462.29C572.58 12459.76 570.66 12456.310000000001 573.2 12452.830000000002C573.86 12451.930000000002 575.12 12451.730000000001 576.0200000000001 12452.390000000001C576.9200000000001 12453.060000000001 577.1100000000001 12454.320000000002 576.45 12455.230000000001C575.5400000000001 12456.480000000001 576.0400000000001 12457.680000000002 577.5 12460.320000000002C579.04 12463.090000000002 581.15 12466.900000000001 577.72 12470.730000000001C577.32 12471.180000000002 576.77 12471.410000000002 576.22 12471.410000000002C575.74 12471.410000000002 575.26 12471.240000000002 574.87 12470.890000000001C574.05 12470.140000000001 573.98 12468.86 574.72 12468.03ZM583.42 12452.83C584.0799999999999 12451.93 585.3399999999999 12451.73 586.24 12452.39C587.13 12453.06 587.33 12454.32 586.67 12455.23C585.75 12456.48 586.25 12457.68 587.7099999999999 12460.32C589.2499999999999 12463.09 591.3599999999999 12466.9 587.9399999999999 12470.73C587.54 12471.18 586.9899999999999 12471.41 586.43 12471.41C585.9599999999999 12471.41 585.4699999999999 12471.24 585.0899999999999 12470.89C584.2599999999999 12470.14 584.1899999999999 12468.859999999999 584.93 12468.029999999999C586.31 12466.489999999998 585.8199999999999 12465.23 584.1899999999999 12462.289999999999C582.79 12459.759999999998 580.8699999999999 12456.31 583.42 12452.83ZM548.71 12478.13L553.7 12478.13L553.7 12473.91C553.7 12472.53 552.58 12471.4 551.21 12471.4C549.83 12471.4 548.71 12472.529999999999 548.71 12473.91ZM530.02 12475.62C530.02 12477 531.14 12478.12 532.51 12478.12C533.89 12478.12 535.01 12477 535.01 12475.62L535.01 12473.910000000002C535.01 12472.530000000002 533.89 12471.400000000001 532.51 12471.400000000001C531.14 12471.400000000001 530.02 12472.53 530.02 12473.910000000002ZM571.58 12507.82C570.46 12507.82 569.5600000000001 12506.91 569.5600000000001 12505.789999999999C569.5600000000001 12504.669999999998 570.46 12503.759999999998 571.58 12503.759999999998L571.95 12503.759999999998C573.0600000000001 12503.759999999998 573.97 12504.669999999998 573.97 12505.789999999999C573.97 12506.91 573.0600000000001 12507.82 571.95 12507.82ZM589.78 12507.82C588.66 12507.82 587.76 12506.91 587.76 12505.789999999999C587.76 12504.669999999998 588.66 12503.759999999998 589.78 12503.759999999998L590.15 12503.759999999998C591.26 12503.759999999998 592.17 12504.669999999998 592.17 12505.789999999999C592.17 12506.91 591.26 12507.82 590.15 12507.82ZM580.49 12507.82C579.38 12507.82 578.47 12506.91 578.47 12505.789999999999C578.47 12504.669999999998 579.38 12503.759999999998 580.49 12503.759999999998L580.86 12503.759999999998C581.98 12503.759999999998 582.88 12504.669999999998 582.88 12505.789999999999C582.88 12506.91 581.98 12507.82 580.86 12507.82ZM547.45 12507.82C548.57 12507.82 549.47 12506.91 549.47 12505.789999999999C549.47 12504.669999999998 548.57 12503.759999999998 547.45 12503.759999999998L536.2700000000001 12503.759999999998C535.1500000000001 12503.759999999998 534.2500000000001 12504.669999999998 534.2500000000001 12505.789999999999C534.2500000000001 12506.91 535.1500000000001 12507.82 536.2700000000001 12507.82Z " fill="#d1b38c" fill-opacity="1" transform="matrix(1,0,0,1,-516,-12452)"></path></svg>