<svg id="SvgjsSvg1028" xmlns="http://www.w3.org/2000/svg" version="1.1" xmlns:xlink="http://www.w3.org/1999/xlink" xmlns:svgjs="http://svgjs.com/svgjs" width="59" height="59"><defs id="SvgjsDefs1029"><clipPath id="SvgjsClipPath1032"><path id="SvgjsPath1031" d="M951 486.5C951 470.2076 964.2076 457 980.5 457C996.7924 457 1010 470.2076 1010 486.5C1010 502.7924 996.7924 516 980.5 516C964.2076 516 951 502.7924 951 486.5Z " fill="#ffffff"></path></clipPath></defs><path id="SvgjsPath1030" d="M951 486.5C951 470.2076 964.2076 457 980.5 457C996.7924 457 1010 470.2076 1010 486.5C1010 502.7924 996.7924 516 980.5 516C964.2076 516 951 502.7924 951 486.5Z " fill-opacity="0" fill="#ffffff" stroke-dasharray="0" stroke-linejoin="miter" stroke-linecap="butt" stroke-opacity="1" stroke="#ffffff" stroke-miterlimit="50" stroke-width="6" clip-path="url(&quot;#SvgjsClipPath1032&quot;)" transform="matrix(1,0,0,1,-951,-457)"></path><path id="SvgjsPath1033" d="M959 486.5C959 474.62588 968.62588 465 980.5 465C992.37412 465 1002 474.62588 1002 486.5C1002 498.37412 992.37412 508 980.5 508C968.62588 508 959 498.37412 959 486.5Z " fill="#ffffff" fill-opacity="1" transform="matrix(1,0,0,1,-951,-457)"></path><path id="SvgjsPath1034" d="M985.08103 491.45603L976.4189700000001 482.79397 " fill-opacity="0" fill="#ffffff" stroke-dasharray="0" stroke-linejoin="miter" stroke-linecap="square" stroke-opacity="1" stroke="#111111" stroke-miterlimit="50" stroke-width="1" transform="matrix(1,0,0,1,-951,-457)"></path><path id="SvgjsPath1035" d="M976.79397 491.08103L985.4560299999999 482.41897 " fill-opacity="0" fill="#ffffff" stroke-dasharray="0" stroke-linejoin="miter" stroke-linecap="square" stroke-opacity="1" stroke="#111111" stroke-miterlimit="50" stroke-width="1" transform="matrix(1,0,0,1,-951,-457)"></path></svg>