<svg id="SvgjsSvg1071" xmlns="http://www.w3.org/2000/svg" version="1.1" xmlns:xlink="http://www.w3.org/1999/xlink" xmlns:svgjs="http://svgjs.com/svgjs" width="70" height="60"><defs id="SvgjsDefs1072"></defs><path id="SvgjsPath1073" d="M1191.6 4721.92L1179.11 4734.36L1179.11 4716L1140.4599999999998 4716L1130.9999999999998 4725.42L1130.9999999999998 4775.79L1179.1099999999997 4775.79L1179.1099999999997 4752.93L1195.3299999999997 4736.77L1196.6799999999996 4738.110000000001L1182.9499999999996 4751.780000000001L1184.6399999999996 4753.47L1200.0699999999997 4738.110000000001L1197.0299999999997 4735.080000000001L1200.9299999999998 4731.200000000001ZM1133.4 4773.4L1133.4 4727.099999999999L1142.15 4727.099999999999L1142.15 4718.389999999999L1176.71 4718.389999999999L1176.71 4736.749999999999L1161.18 4752.219999999999L1158.79 4763.869999999999L1170.5 4761.499999999999L1176.71 4755.319999999999L1176.71 4773.399999999999ZM1195.33 4733.39L1189.3999999999999 4727.490000000001L1191.6 4725.290000000001L1197.54 4731.200000000001ZM1167.48 4759.68L1161.8700000000001 4760.81L1163.0100000000002 4755.22ZM1139.75 4724.72L1135.09 4724.72L1139.75 4720.08ZM1163.98 4752.81L1187.71 4729.17L1193.64 4735.08L1169.91 4758.71Z " fill="#6a6a6a" fill-opacity="1" transform="matrix(1,0,0,1,-1131,-4716)"></path><path id="SvgjsPath1074" d="M1166 4751.93L1187.02 4731L1188.71 4732.69L1167.7 4753.62Z " fill="#6a6a6a" fill-opacity="1" transform="matrix(1,0,0,1,-1131,-4716)"></path><path id="SvgjsPath1075" d="M1191.71 4735.69L1170.7 4756.62L1169 4754.93L1190.02 4734Z " fill="#6a6a6a" fill-opacity="1" transform="matrix(1,0,0,1,-1131,-4716)"></path><path id="SvgjsPath1076" d="M1142 4736L1142 4734L1169 4734L1169 4736Z " fill="#6a6a6a" fill-opacity="1" transform="matrix(1,0,0,1,-1131,-4716)"></path><path id="SvgjsPath1077" d="M1142 4742L1142 4740L1166 4740L1166 4742Z " fill="#6a6a6a" fill-opacity="1" transform="matrix(1,0,0,1,-1131,-4716)"></path><path id="SvgjsPath1078" d="M1142 4747L1142 4745L1162 4745L1162 4747Z " fill="#6a6a6a" fill-opacity="1" transform="matrix(1,0,0,1,-1131,-4716)"></path><path id="SvgjsPath1079" d="M1142 4753L1142 4751L1158 4751L1158 4753Z " fill="#6a6a6a" fill-opacity="1" transform="matrix(1,0,0,1,-1131,-4716)"></path></svg>