<svg id="SvgjsSvg1036" xmlns="http://www.w3.org/2000/svg" version="1.1" xmlns:xlink="http://www.w3.org/1999/xlink" xmlns:svgjs="http://svgjs.com/svgjs" width="64" height="64"><defs id="SvgjsDefs1037"></defs><path id="SvgjsPath1038" d="M340 4751L340 4749L342 4749L342 4751Z " fill="#6a6a6a" fill-opacity="1" transform="matrix(1,0,0,1,-331,-4719)"></path><path id="SvgjsPath1039" d="M338 4748L338 4746L340 4746L340 4748Z " fill="#6a6a6a" fill-opacity="1" transform="matrix(1,0,0,1,-331,-4719)"></path><path id="SvgjsPath1040" d="M348 4753L348 4751L350 4751L350 4753Z " fill="#6a6a6a" fill-opacity="1" transform="matrix(1,0,0,1,-331,-4719)"></path><path id="SvgjsPath1041" d="M352 4751L352 4749L354 4749L354 4751Z " fill="#6a6a6a" fill-opacity="1" transform="matrix(1,0,0,1,-331,-4719)"></path><path id="SvgjsPath1042" d="M387.39 4772.19C387.39 4768.78 384.61 4766 381.19 4766C377.78 4766 375 4768.78 375 4772.19C375 4775.61 377.78 4778.389999999999 381.19 4778.389999999999C384.61 4778.389999999999 387.39 4775.61 387.39 4772.19ZM378.89 4772.06L379.91999999999996 4770.27L378.24999999999994 4769.3C378.7699999999999 4768.78 379.42999999999995 4768.400000000001 380.15999999999997 4768.21L380.15999999999997 4770.13L382.22999999999996 4770.13L382.22999999999996 4768.21C382.96 4768.4 383.61999999999995 4768.78 384.14 4769.3L382.46999999999997 4770.27L383.49999999999994 4772.06L385.15999999999997 4771.1C385.24999999999994 4771.450000000001 385.32 4771.81 385.32 4772.1900000000005C385.32 4772.580000000001 385.25 4772.9400000000005 385.15999999999997 4773.290000000001L383.49999999999994 4772.330000000001L382.46999999999997 4774.120000000001L384.14 4775.080000000001C383.62 4775.610000000001 382.96 4775.990000000001 382.22999999999996 4776.180000000001L382.22999999999996 4774.260000000001L380.15999999999997 4774.260000000001L380.15999999999997 4776.180000000001C379.42999999999995 4775.990000000002 378.77 4775.6100000000015 378.24999999999994 4775.080000000001L379.91999999999996 4774.120000000001L378.89 4772.330000000001L377.22999999999996 4773.290000000001C377.12999999999994 4772.9400000000005 377.05999999999995 4772.580000000001 377.05999999999995 4772.1900000000005C377.05999999999995 4771.81 377.12999999999994 4771.450000000001 377.22999999999996 4771.1Z " fill="#6a6a6a" fill-opacity="1" transform="matrix(1,0,0,1,-331,-4719)"></path><path id="SvgjsPath1043" d="M392.94 4762.35L390.87 4762.35L390.87 4756.160000000001L387.77 4756.160000000001L387.77 4744.380000000001C388.43 4743.300000000001 388.81 4742.030000000001 388.81 4740.680000000001C388.81 4738.1100000000015 387.46 4735.8600000000015 385.44 4734.580000000001L376.11 4724.150000000001C375.22 4721.18 372.46000000000004 4719.000000000001 369.19 4719.000000000001C366.66 4719.000000000001 364.43 4720.320000000001 363.14 4722.300000000001L351.12 4733.720000000001C350.04 4734.740000000002 349.44 4736.1100000000015 349.42 4737.590000000001C349.41 4738.670000000001 349.71000000000004 4739.700000000001 350.28000000000003 4740.580000000001L344.72 4746.140000000001L346.18 4747.600000000001L351.71 4742.0700000000015C352.65 4742.750000000002 353.75 4743.1100000000015 354.85999999999996 4743.1100000000015C356.17999999999995 4743.1100000000015 357.50999999999993 4742.630000000002 358.55999999999995 4741.660000000002L367.62999999999994 4733.280000000002C367.94999999999993 4733.350000000001 368.25999999999993 4733.390000000001 368.5899999999999 4733.420000000002L374.38999999999993 4739.950000000002C374.36999999999995 4740.190000000001 374.3499999999999 4740.430000000001 374.3499999999999 4740.680000000001C374.3499999999999 4742.030000000002 374.7399999999999 4743.300000000001 375.38999999999993 4744.380000000001L375.38999999999993 4756.160000000001L372.2899999999999 4756.160000000001L372.2899999999999 4762.35L370.2299999999999 4762.35L370.2299999999999 4780.9400000000005L351.6499999999999 4780.9400000000005L351.6499999999999 4762.35L349.5799999999999 4762.35L349.5799999999999 4760.29L351.6499999999999 4760.29L351.6499999999999 4758.23L349.4799999999999 4758.23C348.9999999999999 4755.87 346.9099999999999 4754.099999999999 344.4199999999999 4754.099999999999L335.1299999999999 4754.099999999999L335.1299999999999 4758.23L333.0599999999999 4758.23L333.0599999999999 4760.29L335.1299999999999 4760.29L335.1299999999999 4762.35L333.0599999999999 4762.35L333.0599999999999 4780.9400000000005L330.9999999999999 4780.9400000000005L330.9999999999999 4783.000000000001L394.9999999999999 4783.000000000001L394.9999999999999 4780.9400000000005L392.9399999999999 4780.9400000000005ZM347.52 4770.61L347.52 4772.679999999999L349.58 4772.679999999999L349.58 4780.94L335.13 4780.94L335.13 4772.679999999999L345.45 4772.679999999999L345.45 4770.61L335.13 4770.61L335.13 4764.42L349.58 4764.42L349.58 4770.61ZM352.48 4740.05C351.83000000000004 4739.400000000001 351.48 4738.54 351.49 4737.62C351.5 4736.7 351.87 4735.849999999999 352.54 4735.21L361.97 4726.25C361.98 4728.88 363.40000000000003 4731.17 365.51000000000005 4732.43L357.16 4740.14C355.82000000000005 4741.38 353.76000000000005 4741.34 352.48 4740.05ZM371.13 4733.18C373.79 4732.4400000000005 375.83 4730.22 376.3 4727.46L381.67 4733.46C381.64000000000004 4733.46 381.61 4733.45 381.58000000000004 4733.45C378.70000000000005 4733.45 376.22 4735.15 375.06000000000006 4737.59ZM364.03 4726.23C364.03 4723.379999999999 366.34999999999997 4721.0599999999995 369.19 4721.0599999999995C372.04 4721.0599999999995 374.35 4723.379999999999 374.35 4726.23C374.35 4729.07 372.04 4731.379999999999 369.20000000000005 4731.389999999999L369.19000000000005 4731.389999999999C366.34000000000003 4731.379999999999 364.03000000000003 4729.07 364.03000000000003 4726.23ZM381.58 4745.84C378.72999999999996 4745.84 376.41999999999996 4743.52 376.41999999999996 4740.68C376.41999999999996 4737.83 378.72999999999996 4735.52 381.58 4735.52C384.43 4735.52 386.74 4737.830000000001 386.74 4740.68C386.74 4743.52 384.43 4745.84 381.58 4745.84ZM385.71 4756.16L377.45 4756.16L377.45 4746.599999999999C378.62 4747.419999999999 380.05 4747.9 381.58 4747.9C383.12 4747.9 384.53999999999996 4747.42 385.71 4746.599999999999ZM388.81 4758.23L388.81 4762.349999999999L374.35 4762.349999999999L374.35 4758.23ZM347.52 4760.29L347.52 4762.35L337.19 4762.35L337.19 4760.29ZM344.42 4756.16C345.76 4756.16 346.90000000000003 4757.03 347.33000000000004 4758.23L337.19000000000005 4758.23L337.19000000000005 4756.16ZM372.29 4780.94L372.29 4764.419999999999L390.87 4764.419999999999L390.87 4780.94Z " fill="#6a6a6a" fill-opacity="1" transform="matrix(1,0,0,1,-331,-4719)"></path></svg>