<svg id="SvgjsSvg1044" xmlns="http://www.w3.org/2000/svg" version="1.1" xmlns:xlink="http://www.w3.org/1999/xlink" xmlns:svgjs="http://svgjs.com/svgjs" width="63" height="62"><defs id="SvgjsDefs1045"></defs><path id="SvgjsPath1046" d="M762.26 4727C753.29 4727 746 4734.3 746 4743.26C746 4752.2300000000005 753.29 4759.52 762.26 4759.52C771.22 4759.52 778.52 4752.2300000000005 778.52 4743.26C778.52 4734.3 771.22 4727 762.26 4727ZM748.03 4743.26C748.03 4735.42 754.41 4729.030000000001 762.26 4729.030000000001C770.1 4729.030000000001 776.48 4735.420000000001 776.48 4743.26C776.48 4751.110000000001 770.1 4757.49 762.26 4757.49C754.41 4757.49 748.03 4751.11 748.03 4743.26Z " fill="#6a6a6a" fill-opacity="1" transform="matrix(1,0,0,1,-731,-4723)"></path><path id="SvgjsPath1047" d="M781 4744L781 4742L783 4742L783 4744Z " fill="#6a6a6a" fill-opacity="1" transform="matrix(1,0,0,1,-731,-4723)"></path><path id="SvgjsPath1048" d="M785 4744L785 4742L787 4742L787 4744Z " fill="#6a6a6a" fill-opacity="1" transform="matrix(1,0,0,1,-731,-4723)"></path><path id="SvgjsPath1049" d="M738 4744L738 4742L740 4742L740 4744Z " fill="#6a6a6a" fill-opacity="1" transform="matrix(1,0,0,1,-731,-4723)"></path><path id="SvgjsPath1050" d="M742 4744L742 4742L744 4742L744 4744Z " fill="#6a6a6a" fill-opacity="1" transform="matrix(1,0,0,1,-731,-4723)"></path><path id="SvgjsPath1051" d="M761 4763L761 4761L763 4761L763 4763Z " fill="#6a6a6a" fill-opacity="1" transform="matrix(1,0,0,1,-731,-4723)"></path><path id="SvgjsPath1052" d="M761 4725L761 4723L763 4723L763 4725Z " fill="#6a6a6a" fill-opacity="1" transform="matrix(1,0,0,1,-731,-4723)"></path><path id="SvgjsPath1053" d="M780.15 4740.16L782.16 4739.84C780.78 4731.150000000001 774.01 4724.38 765.3199999999999 4723L764.9999999999999 4725.01C772.8199999999999 4726.25 778.9099999999999 4732.34 780.1499999999999 4740.16Z " fill="#6a6a6a" fill-opacity="1" transform="matrix(1,0,0,1,-731,-4723)"></path><path id="SvgjsPath1054" d="M759.16 4725.01L758.8399999999999 4723C750.1499999999999 4724.38 743.3799999999999 4731.15 741.9999999999999 4739.84L744.0099999999999 4740.16C745.2499999999999 4732.34 751.3399999999999 4726.25 759.1599999999999 4725.01Z " fill="#6a6a6a" fill-opacity="1" transform="matrix(1,0,0,1,-731,-4723)"></path><path id="SvgjsPath1055" d="M759.16 4761.15C751.3399999999999 4759.91 745.25 4753.82 744.01 4746L742 4746.32C743.38 4755.009999999999 750.15 4761.78 758.84 4763.16L759.1600000000001 4761.15Z " fill="#6a6a6a" fill-opacity="1" transform="matrix(1,0,0,1,-731,-4723)"></path><path id="SvgjsPath1056" d="M780.15 4746C778.91 4753.82 772.8199999999999 4759.91 765 4761.15L765.32 4763.16C774.0100000000001 4761.78 780.7800000000001 4755.01 782.1600000000001 4746.32L780.1500000000001 4746Z " fill="#6a6a6a" fill-opacity="1" transform="matrix(1,0,0,1,-731,-4723)"></path><path id="SvgjsPath1057" d="M789.94 4770.08L763.5200000000001 4770.08L763.5200000000001 4765L761.4800000000001 4765L761.4800000000001 4770.08L735.0600000000002 4770.08L735.0600000000002 4774.25C732.7500000000002 4774.72 731.0000000000002 4776.78 731.0000000000002 4779.23C731.0000000000002 4782.03 733.2800000000002 4784.3099999999995 736.0800000000003 4784.3099999999995C738.8800000000002 4784.3099999999995 741.1600000000003 4782.03 741.1600000000003 4779.23C741.1600000000003 4776.78 739.4100000000003 4774.719999999999 737.1000000000004 4774.25L737.1000000000004 4772.11L761.4800000000004 4772.11L761.4800000000004 4774.25C759.1700000000004 4774.72 757.4200000000004 4776.77 757.4200000000004 4779.23C757.4200000000004 4782.03 759.7000000000004 4784.3099999999995 762.5000000000005 4784.3099999999995C765.3000000000004 4784.3099999999995 767.5800000000005 4782.03 767.5800000000005 4779.23C767.5800000000005 4776.78 765.8300000000005 4774.719999999999 763.5200000000006 4774.25L763.5200000000006 4772.11L787.9000000000005 4772.11L787.9000000000005 4774.25C785.5900000000006 4774.72 783.8400000000006 4776.77 783.8400000000006 4779.23C783.8400000000006 4782.03 786.1200000000006 4784.3099999999995 788.9200000000006 4784.3099999999995C791.7200000000006 4784.3099999999995 794.0000000000007 4782.03 794.0000000000007 4779.23C794.0000000000007 4776.78 792.2500000000007 4774.719999999999 789.9400000000007 4774.25ZM736.08 4782.28C734.4000000000001 4782.28 733.0300000000001 4780.91 733.0300000000001 4779.23C733.0300000000001 4777.549999999999 734.4000000000001 4776.179999999999 736.08 4776.179999999999C737.76 4776.179999999999 739.13 4777.549999999999 739.13 4779.23C739.13 4780.91 737.76 4782.28 736.08 4782.28ZM762.5 4782.28C760.82 4782.28 759.45 4780.91 759.45 4779.23C759.45 4777.549999999999 760.82 4776.179999999999 762.5 4776.179999999999C764.18 4776.179999999999 765.55 4777.549999999999 765.55 4779.23C765.55 4780.91 764.18 4782.28 762.5 4782.28ZM785.87 4779.23C785.87 4777.549999999999 787.24 4776.179999999999 788.92 4776.179999999999C790.5999999999999 4776.179999999999 791.9699999999999 4777.549999999999 791.9699999999999 4779.23C791.9699999999999 4780.91 790.5999999999999 4782.28 788.92 4782.28C787.24 4782.28 785.87 4780.91 785.87 4779.23Z " fill="#6a6a6a" fill-opacity="1" transform="matrix(1,0,0,1,-731,-4723)"></path><path id="SvgjsPath1058" d="M785 4760L785 4750L787 4750L787 4760Z " fill="#6a6a6a" fill-opacity="1" transform="matrix(1,0,0,1,-731,-4723)"></path><path id="SvgjsPath1059" d="M785 4764L785 4762L787 4762L787 4764Z " fill="#6a6a6a" fill-opacity="1" transform="matrix(1,0,0,1,-731,-4723)"></path><path id="SvgjsPath1060" d="M781 4762L781 4757L783 4757L783 4762Z " fill="#6a6a6a" fill-opacity="1" transform="matrix(1,0,0,1,-731,-4723)"></path><path id="SvgjsPath1061" d="M781 4766L781 4764L783 4764L783 4766Z " fill="#6a6a6a" fill-opacity="1" transform="matrix(1,0,0,1,-731,-4723)"></path><path id="SvgjsPath1062" d="M777 4764L777 4762L779 4762L779 4764Z " fill="#6a6a6a" fill-opacity="1" transform="matrix(1,0,0,1,-731,-4723)"></path><path id="SvgjsPath1063" d="M777 4768L777 4766L779 4766L779 4768Z " fill="#6a6a6a" fill-opacity="1" transform="matrix(1,0,0,1,-731,-4723)"></path><path id="SvgjsPath1064" d="M738 4760L738 4750L740 4750L740 4760Z " fill="#6a6a6a" fill-opacity="1" transform="matrix(1,0,0,1,-731,-4723)"></path><path id="SvgjsPath1065" d="M738 4764L738 4762L740 4762L740 4764Z " fill="#6a6a6a" fill-opacity="1" transform="matrix(1,0,0,1,-731,-4723)"></path><path id="SvgjsPath1066" d="M742 4762L742 4757L744 4757L744 4762Z " fill="#6a6a6a" fill-opacity="1" transform="matrix(1,0,0,1,-731,-4723)"></path><path id="SvgjsPath1067" d="M742 4766L742 4764L744 4764L744 4766Z " fill="#6a6a6a" fill-opacity="1" transform="matrix(1,0,0,1,-731,-4723)"></path><path id="SvgjsPath1068" d="M746 4764L746 4762L748 4762L748 4764Z " fill="#6a6a6a" fill-opacity="1" transform="matrix(1,0,0,1,-731,-4723)"></path><path id="SvgjsPath1069" d="M746 4768L746 4766L748 4766L748 4768Z " fill="#6a6a6a" fill-opacity="1" transform="matrix(1,0,0,1,-731,-4723)"></path><path id="SvgjsPath1070" d="M763.64 4733.03L763.13 4733.03L763.13 4731L761.1 4731L761.1 4733.03L760.59 4733.03C757.51 4733.03 755 4735.54 755 4738.62C755 4741.7 757.51 4744.21 760.59 4744.21L763.64 4744.21C765.6 4744.21 767.1899999999999 4745.81 767.1899999999999 4747.77C767.1899999999999 4749.7300000000005 765.5999999999999 4751.330000000001 763.64 4751.330000000001L760.59 4751.330000000001C758.63 4751.330000000001 757.0300000000001 4749.7300000000005 757.0300000000001 4747.77L757.0300000000001 4747.26L755.0000000000001 4747.26L755.0000000000001 4747.77C755.0000000000001 4750.85 757.5100000000001 4753.360000000001 760.5900000000001 4753.360000000001L761.1000000000001 4753.360000000001L761.1000000000001 4755.39L763.1300000000001 4755.39L763.1300000000001 4753.360000000001L763.6400000000001 4753.360000000001C766.7200000000001 4753.360000000001 769.2300000000001 4750.85 769.2300000000001 4747.77C769.2300000000001 4744.6900000000005 766.7200000000001 4742.18 763.6400000000001 4742.18L760.5900000000001 4742.18C758.6300000000001 4742.18 757.0300000000002 4740.58 757.0300000000002 4738.62C757.0300000000002 4736.66 758.6300000000002 4735.07 760.5900000000001 4735.07L763.6400000000001 4735.07C765.6000000000001 4735.07 767.19 4736.66 767.19 4738.62L767.19 4739.13L769.23 4739.13L769.23 4738.62C769.23 4735.54 766.72 4733.03 763.64 4733.03Z " fill="#6a6a6a" fill-opacity="1" transform="matrix(1,0,0,1,-731,-4723)"></path></svg>