<svg id="SvgjsSvg1000" xmlns="http://www.w3.org/2000/svg" version="1.1" xmlns:xlink="http://www.w3.org/1999/xlink" xmlns:svgjs="http://svgjs.com/svgjs" width="174" height="34"><defs id="SvgjsDefs1001"></defs><path id="SvgjsPath1007" d="M191 52.62L215.27 52.62L215.27 48.809999999999995C215.27 46.709999999999994 213.68 44.99999999999999 211.73000000000002 44.99999999999999L191.00000000000003 44.99999999999999Z " fill="#ffffff" fill-opacity="1" transform="matrix(1,0,0,1,-183,-45)"></path><path id="SvgjsPath1008" d="M208 54L215.66 54L215.66 74.5C215.66 76.49 213.94 78.12 211.82999999999998 78.12L207.99999999999997 78.12Z " fill="#9b9b9b" fill-opacity="1" transform="matrix(1,0,0,1,-183,-45)"></path><path id="SvgjsPath1009" d="M207.27 72L183 72L183 75.17C183 76.92 184.43 78.35000000000001 186.19 78.35000000000001L207.26999999999998 78.35000000000001Z " fill="#ffffff" fill-opacity="1" transform="matrix(1,0,0,1,-183,-45)"></path><path id="SvgjsPath1010" d="M190.66 69.12L183 69.12L183 48.300000000000004C183 46.49 184.65 45.00000000000001 186.67 45.00000000000001L190.66 45.00000000000001Z " fill="#9b9b9b" fill-opacity="1" transform="matrix(1,0,0,1,-183,-45)"></path><path id="SvgjsPath1011" d="M203.46 57.76L203.46 60.53L206.28 60.53L206.28 55L191 55.02L191 68.96000000000001L206.33 68.96000000000001L206.33 62.400000000000006L201.48000000000002 62.400000000000006L201.48000000000002 64.69000000000001L203.43 64.69000000000001L203.43 66.25000000000001L193.92000000000002 66.25000000000001L193.92000000000002 57.76000000000001Z " fill="#ffffff" fill-opacity="1" transform="matrix(1,0,0,1,-183,-45)"></path><path id="SvgjsPath1012" d="M256.07 45.4L251.06 45.4L241.93 68.72L246.95000000000002 68.72L248.89000000000001 63.42L258.27000000000004 63.42L260.32000000000005 68.72L265.47 68.72ZM303.41 45.4L298.41 45.4L289.27000000000004 68.72L294.29 68.72L296.23 63.42L305.61 63.42L307.66 68.72L312.81 68.72ZM235.16 60.14L235.16 63.1C234.44 63.65 233.59 64.12 232.59 64.51C231.59 64.9 230.6 65.09 229.6 65.09C227.6 65.09 225.98 64.4 224.73999999999998 63.010000000000005C223.49999999999997 61.63 222.87999999999997 59.56 222.87999999999997 56.790000000000006C222.87999999999997 54.220000000000006 223.48999999999998 52.290000000000006 224.70999999999998 50.980000000000004C225.93999999999997 49.68000000000001 227.57999999999998 49.02 229.64999999999998 49.02C231.01999999999998 49.02 232.15999999999997 49.36000000000001 233.06999999999996 50.02C233.97999999999996 50.68 234.59999999999997 51.59 234.92999999999998 52.730000000000004L239.64 51.86000000000001C239.17 49.71000000000001 238.10999999999999 48.040000000000006 236.48 46.82000000000001C234.84 45.61000000000001 232.56 45.00000000000001 229.64999999999998 45.00000000000001C227.40999999999997 45.00000000000001 225.53999999999996 45.39000000000001 224.02999999999997 46.160000000000004C222.05999999999997 47.17 220.55999999999997 48.620000000000005 219.53999999999996 50.5C218.50999999999996 52.39 217.99999999999997 54.55 217.99999999999997 56.980000000000004C217.99999999999997 59.220000000000006 218.45999999999998 61.290000000000006 219.37999999999997 63.190000000000005C220.28999999999996 65.09 221.65999999999997 66.56 223.48999999999998 67.58C225.30999999999997 68.6 227.45 69.12 229.90999999999997 69.12C231.83999999999997 69.12 233.74999999999997 68.75 235.62999999999997 68.03C237.50999999999996 67.3 238.94999999999996 66.46000000000001 239.93999999999997 65.5L239.93999999999997 56.21L229.72999999999996 56.21L229.72999999999996 60.14ZM272.73 68.72L272.73 58.98L273.69 58.98C274.78 58.98 275.58 59.07 276.08 59.239999999999995C276.58 59.419999999999995 277.06 59.739999999999995 277.5 60.21999999999999C277.95 60.68999999999999 278.78 61.82999999999999 280 63.63999999999999L283.43 68.72L289.09000000000003 68.72L286.23 64.17C285.09000000000003 62.35 284.20000000000005 61.09 283.53000000000003 60.38C282.86 59.67 282.02000000000004 59.02 280.99 58.43C283.05 58.13 284.6 57.41 285.63 56.269999999999996C286.67 55.129999999999995 287.19 53.69 287.19 51.94C287.19 50.559999999999995 286.84 49.33 286.16 48.26C285.48 47.19 284.57000000000005 46.44 283.43 46.03C282.3 45.61 280.48 45.4 277.97 45.4L268 45.4L268 68.72ZM319.77 68.72L319.77 53.51L329.22999999999996 68.72L333.97999999999996 68.72L333.97999999999996 45.4L329.58 45.4L329.58 60.97L319.97999999999996 45.4L315.36999999999995 45.4L315.36999999999995 68.72ZM272.73 49.34L276.43 49.34C278.35 49.34 279.5 49.370000000000005 279.89 49.42C280.65999999999997 49.550000000000004 281.25 49.85 281.66999999999996 50.34C282.09 50.82 282.29999999999995 51.45 282.29999999999995 52.24C282.29999999999995 52.940000000000005 282.13999999999993 53.52 281.81999999999994 53.99C281.49999999999994 54.45 281.05999999999995 54.78 280.49999999999994 54.97C279.92999999999995 55.16 278.50999999999993 55.26 276.23999999999995 55.26L272.72999999999996 55.26ZM250.34 59.49L253.51 50.84L256.75 59.49ZM297.68 59.49L300.85 50.84L304.09000000000003 59.49ZM344.27 68.72L344.27 49.34L337.31 49.34L337.31 45.400000000000006L355.96 45.400000000000006L355.96 49.34L349.01 49.34L349.01 68.72Z " fill="#ffffff" fill-opacity="1" transform="matrix(1,0,0,1,-183,-45)"></path><path id="SvgjsPath1013" d="M220 77.56L220 72L221.42 72L222.26999999999998 75.79L223.10999999999999 72L224.52999999999997 72L224.52999999999997 77.56L223.64999999999998 77.56L223.64999999999998 73.18L222.71999999999997 77.56L221.80999999999997 77.56L220.87999999999997 73.18L220.87999999999997 77.56Z " fill="#ffffff" fill-opacity="1" transform="matrix(1,0,0,1,-183,-45)"></path><path id="SvgjsPath1014" d="M232.13 76.01C232.01 76.42 231.82 76.72 231.57 76.91000000000001C231.32 77.11000000000001 231.01 77.21000000000001 230.65 77.21000000000001C230.14000000000001 77.21000000000001 229.76000000000002 77.04 229.48000000000002 76.72000000000001C229.16000000000003 76.34000000000002 229.00000000000003 75.81000000000002 229.00000000000003 75.13000000000001C229.00000000000003 74.45 229.16000000000003 73.92000000000002 229.49000000000004 73.51C229.76000000000005 73.17 230.12000000000003 73 230.56000000000003 73C231.04000000000002 73 231.42000000000004 73.17 231.70000000000002 73.52C232.02 73.92 232.18 74.50999999999999 232.18 75.28999999999999L232.17000000000002 75.41L229.92000000000002 75.41C229.93 75.72999999999999 230.00000000000003 75.97999999999999 230.14000000000001 76.14999999999999C230.28 76.32 230.45000000000002 76.41 230.65 76.41C230.94 76.41 231.14000000000001 76.22 231.23000000000002 75.84ZM231.28 74.76C231.28 74.45 231.21 74.21000000000001 231.08 74.05000000000001C230.95000000000002 73.89000000000001 230.79000000000002 73.81000000000002 230.61 73.81000000000002C230.42000000000002 73.81000000000002 230.26000000000002 73.90000000000002 230.13000000000002 74.06000000000002C230.00000000000003 74.23000000000002 229.93000000000004 74.46000000000002 229.94000000000003 74.76000000000002Z " fill="#ffffff" fill-opacity="1" transform="matrix(1,0,0,1,-183,-45)"></path><path id="SvgjsPath1015" d="M239.47 72.15C239.60999999999999 72.15 239.69 72.10000000000001 239.72 72L240.34 72C240.33 72.3 240.27 72.52 240.17000000000002 72.66C240.06 72.8 239.94000000000003 72.89 239.82000000000002 72.92C239.70000000000002 72.94 239.45000000000002 72.96000000000001 239.07000000000002 72.97C238.69000000000003 72.98 238.44000000000003 73 238.33 73.03999999999999C238.22 73.07 238.11 73.14999999999999 237.99 73.25999999999999C237.86 73.38 237.77 73.52999999999999 237.71 73.72999999999999C237.65 73.92999999999999 237.62 74.21 237.61 74.54999999999998C237.9 73.95999999999998 238.32000000000002 73.66999999999999 238.88000000000002 73.66999999999999C239.31000000000003 73.66999999999999 239.69000000000003 73.86999999999999 240.00000000000003 74.26999999999998C240.32000000000002 74.67999999999998 240.48000000000002 75.15999999999998 240.48000000000002 75.71999999999998C240.48000000000002 76.29999999999998 240.31000000000003 76.78999999999998 239.97000000000003 77.17999999999998C239.64000000000001 77.56999999999998 239.22000000000003 77.76999999999998 238.71000000000004 77.76999999999998C238.32000000000005 77.76999999999998 237.98000000000005 77.64999999999998 237.69000000000003 77.40999999999998C237.41000000000003 77.15999999999998 237.22000000000003 76.84999999999998 237.13000000000002 76.46999999999998C237.04000000000002 76.08999999999999 237.00000000000003 75.54999999999998 237.00000000000003 74.86999999999999C237.00000000000003 73.89999999999999 237.15000000000003 73.19999999999999 237.45000000000002 72.77999999999999C237.74 72.35999999999999 238.28000000000003 72.14999999999999 239.04000000000002 72.14999999999999ZM238.16 74.84C238 75.06 237.92 75.34 237.92 75.7C237.92 76.06 238 76.35000000000001 238.14999999999998 76.57000000000001C238.29999999999998 76.79 238.48999999999998 76.9 238.71999999999997 76.9C238.94999999999996 76.9 239.14999999999998 76.79 239.30999999999997 76.56C239.46999999999997 76.34 239.54999999999998 76.05 239.54999999999998 75.7C239.54999999999998 75.35000000000001 239.46999999999997 75.07000000000001 239.30999999999997 74.85000000000001C239.14999999999998 74.62 238.94999999999996 74.51 238.71999999999997 74.51C238.49999999999997 74.51 238.30999999999997 74.62 238.15999999999997 74.84Z " fill="#ffffff" fill-opacity="1" transform="matrix(1,0,0,1,-183,-45)"></path><path id="SvgjsPath1016" d="M248.13 76.01C248.01 76.42 247.82 76.72 247.57 76.91000000000001C247.32 77.11000000000001 247.01 77.21000000000001 246.65 77.21000000000001C246.14000000000001 77.21000000000001 245.76000000000002 77.04 245.48000000000002 76.72000000000001C245.16000000000003 76.34000000000002 245.00000000000003 75.81000000000002 245.00000000000003 75.13000000000001C245.00000000000003 74.45 245.16000000000003 73.92000000000002 245.49000000000004 73.51C245.76000000000005 73.17 246.12000000000003 73 246.56000000000003 73C247.04000000000002 73 247.42000000000004 73.17 247.70000000000002 73.52C248.02 73.92 248.18 74.50999999999999 248.18 75.28999999999999L248.17000000000002 75.41L245.92000000000002 75.41C245.93 75.72999999999999 246.00000000000003 75.97999999999999 246.14000000000001 76.14999999999999C246.28 76.32 246.45000000000002 76.41 246.65 76.41C246.94 76.41 247.14000000000001 76.22 247.23000000000002 75.84ZM247.28 74.76C247.28 74.45 247.21 74.21000000000001 247.08 74.05000000000001C246.95000000000002 73.89000000000001 246.79000000000002 73.81000000000002 246.61 73.81000000000002C246.42000000000002 73.81000000000002 246.26000000000002 73.90000000000002 246.13000000000002 74.06000000000002C246.00000000000003 74.23000000000002 245.93000000000004 74.46000000000002 245.94000000000003 74.76000000000002Z " fill="#ffffff" fill-opacity="1" transform="matrix(1,0,0,1,-183,-45)"></path><path id="SvgjsPath1017" d="M255.75 77.02L255.75 73.83999999999999L254.54 73.83999999999999L254.54 75.66999999999999C254.54 75.96999999999998 254.51999999999998 76.21 254.48 76.39999999999999C254.42999999999998 76.58999999999999 254.35999999999999 76.74 254.26 76.85C254.16 76.96 254.06 77.03 253.97 77.05C253.87 77.08 253.73 77.09 253.56 77.09C253.46 77.09 253.27 77.07000000000001 253 77.02000000000001L253 76.24000000000001C253.07 76.24000000000001 253.2 76.24000000000001 253.37 76.24000000000001C253.48000000000002 76.24000000000001 253.55 76.21000000000001 253.58 76.14000000000001C253.62 76.06000000000002 253.63000000000002 75.90000000000002 253.63000000000002 75.65000000000002L253.63000000000002 73.00000000000001L256.65000000000003 73.00000000000001L256.65000000000003 77.02000000000001Z " fill="#ffffff" fill-opacity="1" transform="matrix(1,0,0,1,-183,-45)"></path><path id="SvgjsPath1018" d="M262 77.02L262 73L262.9 73L262.9 74.67L263.88 74.67C264.48 74.67 264.86 74.79 265.03 75.05C265.2 75.3 265.28999999999996 75.57 265.28999999999996 75.85C265.28999999999996 76.63 264.85999999999996 77.02 263.99999999999994 77.02ZM262.9 75.32L262.9 76.35L263.81 76.35C264.18 76.35 264.36 76.17999999999999 264.36 75.83999999999999C264.36 75.65999999999998 264.3 75.52999999999999 264.19 75.43999999999998C264.08 75.35999999999999 263.87 75.31999999999998 263.56 75.31999999999998Z " fill="#ffffff" fill-opacity="1" transform="matrix(1,0,0,1,-183,-45)"></path><path id="SvgjsPath1019" d="M270 77.02L270 73L270.9 73L270.9 74.47L272.19 74.47L272.19 73L273.09 73L273.09 77.02L272.19 77.02L272.19 75.33L270.9 75.33L270.9 77.02Z " fill="#ffffff" fill-opacity="1" transform="matrix(1,0,0,1,-183,-45)"></path><path id="SvgjsPath1020" d="M278.09 74.14C278.19 73.74 278.35999999999996 73.45 278.58 73.27C278.81 73.08999999999999 279.14 73 279.56 73C279.94 73 280.23 73.05 280.44 73.16C280.64 73.25999999999999 280.78 73.39999999999999 280.86 73.58C280.95 73.76 280.99 74.08 280.99 74.55L280.99 75.78999999999999C280.99 76.13999999999999 281 76.39999999999999 281.03000000000003 76.57C281.06 76.74 281.11 76.91999999999999 281.19000000000005 77.11999999999999L280.30000000000007 77.11999999999999L280.18000000000006 76.67999999999999C280.0300000000001 76.85 279.86000000000007 76.99 279.69000000000005 77.07C279.51000000000005 77.16 279.33000000000004 77.21 279.13000000000005 77.21C278.80000000000007 77.21 278.53000000000003 77.1 278.32000000000005 76.88C278.11000000000007 76.67 278.00000000000006 76.38 278.00000000000006 76.02C278.00000000000006 75.78999999999999 278.0400000000001 75.6 278.13000000000005 75.42999999999999C278.21000000000004 75.25999999999999 278.34000000000003 75.11999999999999 278.49000000000007 75.02C278.6500000000001 74.92 278.9000000000001 74.83 279.24000000000007 74.75C279.6600000000001 74.66 279.95000000000005 74.57 280.11000000000007 74.49C280.11000000000007 74.27 280.0900000000001 74.11999999999999 280.06000000000006 74.05C280.0300000000001 73.98 279.9700000000001 73.92999999999999 279.88000000000005 73.88C279.80000000000007 73.83999999999999 279.6700000000001 73.81 279.51000000000005 73.81C279.35 73.81 279.2300000000001 73.85000000000001 279.13000000000005 73.92C279.0400000000001 73.99 278.97 74.12 278.91 74.32000000000001ZM280.11 75.18C280 75.23 279.82 75.28 279.58000000000004 75.34C279.30000000000007 75.41 279.12000000000006 75.49000000000001 279.03000000000003 75.58C278.94000000000005 75.66 278.90000000000003 75.77 278.90000000000003 75.91C278.90000000000003 76.07 278.95000000000005 76.19 279.04 76.3C279.14000000000004 76.39999999999999 279.26000000000005 76.46 279.40000000000003 76.46C279.53000000000003 76.46 279.65000000000003 76.41 279.78000000000003 76.33C279.90000000000003 76.25 279.99 76.14 280.04 76.03C280.09000000000003 75.91 280.11 75.7 280.11 75.4Z " fill="#ffffff" fill-opacity="1" transform="matrix(1,0,0,1,-183,-45)"></path><path id="SvgjsPath1021" d="M288.4 73.03L288.4 77.05L287.5 77.05L287.5 75.38L287.35 75.38C287.18 75.38 287.05 75.42 286.94 75.5C286.84 75.59 286.74 75.73 286.63 75.93L286.05 77.05000000000001L285 77.05000000000001L285.64 75.89000000000001C285.82 75.56000000000002 285.99 75.36000000000001 286.14 75.30000000000001C285.88 75.28000000000002 285.66999999999996 75.16000000000001 285.52 74.96000000000001C285.37 74.75000000000001 285.29999999999995 74.49000000000001 285.29999999999995 74.17C285.29999999999995 73.78 285.4 73.49 285.59999999999997 73.31C285.79999999999995 73.12 286.11999999999995 73.03 286.55999999999995 73.03ZM287.5 74.75L287.5 73.71L286.78 73.71C286.40999999999997 73.71 286.21999999999997 73.88 286.21999999999997 74.22999999999999C286.21999999999997 74.57 286.42999999999995 74.74999999999999 286.84999999999997 74.74999999999999ZM297.46 77.05L297.46 75.33C297.59 75.33 297.69 75.37 297.75 75.44C297.82 75.5 297.9 75.64999999999999 297.99 75.89L298.44 77.05L299.4 77.05L298.90999999999997 75.94C298.74999999999994 75.58 298.60999999999996 75.34 298.48999999999995 75.23C298.37999999999994 75.11 298.25999999999993 75.03 298.15 74.99000000000001C298.28999999999996 74.92000000000002 298.38 74.82000000000001 298.44 74.7C298.5 74.58 298.57 74.41 298.63 74.18C298.7 73.96000000000001 298.77 73.82000000000001 298.84 73.78C298.91999999999996 73.74 299.03 73.72 299.16999999999996 73.72L299.27 73.72L299.27 73.03C299.12 73.01 299 73 298.91999999999996 73C298.61999999999995 73 298.41999999999996 73.08 298.29999999999995 73.24C298.18999999999994 73.39999999999999 298.0799999999999 73.64999999999999 297.97999999999996 73.97C297.89 74.28999999999999 297.80999999999995 74.48 297.73999999999995 74.55C297.67999999999995 74.61999999999999 297.5799999999999 74.66 297.46 74.67L297.46 73.03L296.56 73.03L296.56 77.05Z " fill="#ffffff" fill-opacity="1" transform="matrix(1,0,0,1,-183,-45)"></path><path id="SvgjsPath1022" d="M304.24 73.97C304.40000000000003 73.65 304.61 73.4 304.87 73.24C305.13 73.08 305.43 73 305.75 73C306.3 73 306.73 73.21 307.04 73.62C307.35 74.04 307.51000000000005 74.53 307.51000000000005 75.08C307.51000000000005 75.5 307.43000000000006 75.87 307.26000000000005 76.2C307.1 76.54 306.89000000000004 76.79 306.62000000000006 76.96000000000001C306.36000000000007 77.12 306.07000000000005 77.21000000000001 305.76000000000005 77.21000000000001C305.25000000000006 77.21000000000001 304.83000000000004 77.02000000000001 304.50000000000006 76.65C304.1700000000001 76.27000000000001 304.00000000000006 75.74000000000001 304.00000000000006 75.05000000000001C304.00000000000006 74.65 304.08000000000004 74.29 304.24000000000007 73.97000000000001ZM305.17 76.03C305.33000000000004 76.24 305.53000000000003 76.34 305.76 76.34C305.99 76.34 306.18 76.23 306.34 76.02000000000001C306.5 75.82000000000001 306.58 75.51 306.58 75.10000000000001C306.58 74.7 306.5 74.39000000000001 306.34 74.18C306.16999999999996 73.97000000000001 305.97999999999996 73.87 305.75 73.87C305.52 73.87 305.33 73.97 305.16 74.18C305 74.39 304.92 74.7 304.92 75.10000000000001C304.92 75.51 305 75.82000000000001 305.17 76.03000000000002Z " fill="#ffffff" fill-opacity="1" transform="matrix(1,0,0,1,-183,-45)"></path><path id="SvgjsPath1023" d="M313 77.02L313 73L314.12 73L314.96 75.8L315.81 73L316.93 73L316.93 77.02L316.15000000000003 77.02L316.15000000000003 74.38L315.33000000000004 77.02L314.56000000000006 77.02L313.7800000000001 74.38L313.7800000000001 77.02Z " fill="#ffffff" fill-opacity="1" transform="matrix(1,0,0,1,-183,-45)"></path><path id="SvgjsPath1024" d="M321 77.02L321 73L324.02 73L324.02 77.02L323.12 77.02L323.12 73.83999999999999L321.9 73.83999999999999L321.9 77.02Z " fill="#ffffff" fill-opacity="1" transform="matrix(1,0,0,1,-183,-45)"></path><path id="SvgjsPath1025" d="M329.09 74.14C329.19 73.74 329.35999999999996 73.45 329.58 73.27C329.81 73.08999999999999 330.14 73 330.56 73C330.94 73 331.23 73.05 331.44 73.16C331.64 73.25999999999999 331.78 73.39999999999999 331.86 73.58C331.95 73.76 331.99 74.08 331.99 74.55L331.99 75.78999999999999C331.99 76.13999999999999 332 76.39999999999999 332.03000000000003 76.57C332.06 76.74 332.11 76.91999999999999 332.19000000000005 77.11999999999999L331.30000000000007 77.11999999999999L331.18000000000006 76.67999999999999C331.0300000000001 76.85 330.86000000000007 76.99 330.69000000000005 77.07C330.51000000000005 77.16 330.33000000000004 77.21 330.13000000000005 77.21C329.80000000000007 77.21 329.53000000000003 77.1 329.32000000000005 76.88C329.11000000000007 76.67 329.00000000000006 76.38 329.00000000000006 76.02C329.00000000000006 75.78999999999999 329.0400000000001 75.6 329.13000000000005 75.42999999999999C329.21000000000004 75.25999999999999 329.34000000000003 75.11999999999999 329.49000000000007 75.02C329.6500000000001 74.92 329.9000000000001 74.83 330.24000000000007 74.75C330.6600000000001 74.66 330.95000000000005 74.57 331.11000000000007 74.49C331.11000000000007 74.27 331.0900000000001 74.11999999999999 331.06000000000006 74.05C331.0300000000001 73.98 330.9700000000001 73.92999999999999 330.88000000000005 73.88C330.80000000000007 73.83999999999999 330.6700000000001 73.81 330.51000000000005 73.81C330.35 73.81 330.2300000000001 73.85000000000001 330.13000000000005 73.92C330.0400000000001 73.99 329.97 74.12 329.91 74.32000000000001ZM331.11 75.18C331 75.23 330.82 75.28 330.58000000000004 75.34C330.30000000000007 75.41 330.12000000000006 75.49000000000001 330.03000000000003 75.58C329.94000000000005 75.66 329.90000000000003 75.77 329.90000000000003 75.91C329.90000000000003 76.07 329.95000000000005 76.19 330.04 76.3C330.14000000000004 76.39999999999999 330.26000000000005 76.46 330.40000000000003 76.46C330.53000000000003 76.46 330.65000000000003 76.41 330.78000000000003 76.33C330.90000000000003 76.25 330.99 76.14 331.04 76.03C331.09000000000003 75.91 331.11 75.7 331.11 75.4Z " fill="#ffffff" fill-opacity="1" transform="matrix(1,0,0,1,-183,-45)"></path><path id="SvgjsPath1026" d="M338 77.02L338 73L338.9 73L338.9 74.47L340.19 74.47L340.19 73L341.09 73L341.09 77.02L340.19 77.02L340.19 75.33L338.9 75.33L338.9 77.02Z " fill="#ffffff" fill-opacity="1" transform="matrix(1,0,0,1,-183,-45)"></path><path id="SvgjsPath1027" d="M346 77.02L346 73L346.86 73L346.86 75.52L348.24 73L349.13 73L349.13 77.02L348.27 77.02L348.27 74.44L346.85999999999996 77.02Z " fill="#ffffff" fill-opacity="1" transform="matrix(1,0,0,1,-183,-45)"></path><path id="SvgjsPath1028" d="M356.4 73L356.4 77.02L355.5 77.02L355.5 75.35L355.35 75.35C355.18 75.35 355.05 75.39 354.94 75.47C354.84 75.55 354.74 75.7 354.63 75.9L354.05 77.02000000000001L353 77.02000000000001L353.64 75.86000000000001C353.82 75.53000000000002 353.99 75.33000000000001 354.14 75.27000000000001C353.88 75.25000000000001 353.66999999999996 75.13000000000001 353.52 74.93C353.37 74.72000000000001 353.29999999999995 74.46000000000001 353.29999999999995 74.14C353.29999999999995 73.75 353.4 73.46 353.59999999999997 73.28C353.79999999999995 73.09 354.11999999999995 73 354.55999999999995 73ZM355.5 74.72L355.5 73.67L354.78 73.67C354.40999999999997 73.67 354.21999999999997 73.85000000000001 354.21999999999997 74.2C354.21999999999997 74.54 354.42999999999995 74.72 354.84999999999997 74.72Z " fill="#ffffff" fill-opacity="1" transform="matrix(1,0,0,1,-183,-45)"></path></svg>