<svg id="SvgjsSvg1011" xmlns="http://www.w3.org/2000/svg" version="1.1" xmlns:xlink="http://www.w3.org/1999/xlink" xmlns:svgjs="http://svgjs.com/svgjs" width="38" height="30"><defs id="SvgjsDefs1012"></defs><path id="SvgjsPath1013" d="M974.4 14591.39C975.01 14591.39 975.6 14591.269999999999 976.15 14591.029999999999C976.7099999999999 14590.789999999999 977.1899999999999 14590.449999999999 977.61 14590.019999999999C978.04 14589.579999999998 978.35 14589.069999999998 978.5500000000001 14588.499999999998C978.7600000000001 14587.939999999999 978.84 14587.339999999998 978.8100000000001 14586.709999999997C978.8100000000001 14586.679999999997 978.7900000000001 14586.459999999997 978.74 14586.059999999998C978.7 14585.649999999998 978.6 14585.129999999997 978.44 14584.479999999998C978.2700000000001 14583.839999999998 978.0400000000001 14583.109999999997 977.72 14582.299999999997C977.4100000000001 14581.479999999998 976.99 14580.649999999998 976.46 14579.799999999997C976.14 14579.289999999997 975.8000000000001 14578.809999999998 975.44 14578.359999999997C975.07 14577.909999999996 974.6800000000001 14577.479999999998 974.2600000000001 14577.089999999997C973.8500000000001 14576.689999999997 973.4100000000001 14576.319999999996 972.94 14575.969999999996C972.48 14575.629999999996 972 14575.309999999996 971.49 14575.029999999995C970.86 14574.679999999995 970.2 14574.369999999995 969.5 14574.099999999995C968.8 14573.819999999994 968.07 14573.599999999995 967.31 14573.429999999995C966.54 14573.249999999995 965.75 14573.119999999995 964.92 14573.029999999995C964.0999999999999 14572.939999999995 963.25 14572.889999999996 962.37 14572.889999999996C961.49 14572.889999999996 960.63 14572.939999999995 959.8100000000001 14573.029999999995C958.98 14573.119999999995 958.19 14573.249999999995 957.4300000000001 14573.429999999995C956.6600000000001 14573.599999999995 955.9300000000001 14573.819999999994 955.23 14574.099999999995C954.53 14574.369999999995 953.87 14574.679999999995 953.24 14575.029999999995C952.74 14575.309999999996 952.25 14575.629999999996 951.79 14575.969999999996C951.3199999999999 14576.319999999996 950.89 14576.689999999995 950.4699999999999 14577.089999999997C950.05 14577.479999999996 949.66 14577.909999999996 949.3 14578.359999999997C948.93 14578.809999999998 948.5899999999999 14579.289999999997 948.27 14579.799999999997C947.74 14580.649999999998 947.3199999999999 14581.479999999998 947.01 14582.299999999997C946.7 14583.109999999997 946.46 14583.839999999998 946.3 14584.479999999998C946.13 14585.129999999997 946.03 14585.649999999998 945.99 14586.059999999998C945.95 14586.459999999997 945.9300000000001 14586.679999999998 945.9300000000001 14586.709999999997C945.8900000000001 14587.339999999997 945.97 14587.939999999997 946.1800000000001 14588.499999999998C946.3800000000001 14589.069999999998 946.7 14589.579999999998 947.1200000000001 14590.019999999999C947.5400000000001 14590.449999999999 948.0300000000001 14590.789999999999 948.5800000000002 14591.029999999999C949.1400000000001 14591.269999999999 949.7200000000001 14591.39 950.3300000000002 14591.39ZM976.96 14574.54C977.58 14574.54 978.09 14574.480000000001 978.5 14574.37C978.91 14574.25 979.23 14574.070000000002 979.48 14573.83C979.84 14573.47 980.13 14573.05 980.35 14572.57C980.57 14572.09 980.7 14571.58 980.73 14571.039999999999C980.76 14570.509999999998 980.6800000000001 14569.97 980.48 14569.429999999998C980.28 14568.88 979.94 14568.369999999999 979.46 14567.869999999999C978.98 14567.4 978.45 14566.949999999999 977.89 14566.529999999999C977.33 14566.099999999999 976.74 14565.699999999999 976.11 14565.329999999998C975.47 14564.969999999998 974.8000000000001 14564.629999999997 974.08 14564.309999999998C973.37 14563.999999999998 972.61 14563.709999999997 971.82 14563.449999999997C971.09 14563.219999999998 970.35 14563.009999999997 969.57 14562.829999999996C968.8000000000001 14562.649999999996 968.0200000000001 14562.499999999996 967.22 14562.379999999996C966.4200000000001 14562.259999999995 965.6 14562.169999999996 964.78 14562.099999999995C963.9499999999999 14562.029999999995 963.12 14561.999999999995 962.28 14561.999999999995C961.4599999999999 14561.999999999995 960.64 14562.029999999995 959.8199999999999 14562.089999999995C958.9999999999999 14562.149999999994 958.1899999999999 14562.239999999994 957.39 14562.359999999995C956.59 14562.479999999996 955.81 14562.629999999996 955.04 14562.809999999996C954.28 14562.989999999996 953.54 14563.199999999995 952.8299999999999 14563.429999999997C952.04 14563.689999999997 951.3 14563.979999999996 950.5899999999999 14564.289999999997C949.8799999999999 14564.589999999997 949.2099999999999 14564.929999999997 948.5799999999999 14565.299999999997C947.9599999999999 14565.659999999998 947.3699999999999 14566.059999999998 946.81 14566.479999999998C946.26 14566.899999999998 945.7399999999999 14567.349999999999 945.26 14567.819999999998C944.68 14568.399999999998 944.3199999999999 14568.979999999998 944.17 14569.559999999998C944.03 14570.139999999998 943.9699999999999 14570.649999999998 944.01 14571.069999999998C944.05 14571.579999999998 944.18 14572.069999999998 944.4 14572.539999999997C944.62 14573.019999999997 944.91 14573.439999999997 945.28 14573.799999999997C945.52 14574.039999999997 945.8399999999999 14574.219999999998 946.26 14574.329999999998C946.68 14574.439999999999 947.1899999999999 14574.499999999998 947.8 14574.499999999998C948.3499999999999 14574.499999999998 948.93 14574.459999999997 949.5699999999999 14574.379999999997C950.1999999999999 14574.289999999997 950.8199999999999 14574.169999999998 951.4399999999999 14574.009999999997C951.92 14573.889999999996 952.4399999999999 14573.729999999996 952.9899999999999 14573.519999999997C953.5399999999998 14573.309999999998 953.9699999999999 14573.049999999997 954.2699999999999 14572.749999999996C954.6099999999999 14572.409999999996 954.8399999999999 14572.049999999996 954.9599999999999 14571.659999999996C955.0799999999999 14571.269999999997 955.17 14570.899999999996 955.2299999999999 14570.559999999996C955.3 14570.149999999996 955.3699999999999 14569.859999999995 955.4499999999999 14569.699999999995C955.52 14569.529999999995 955.65 14569.409999999994 955.8299999999999 14569.329999999994C956.2499999999999 14569.149999999994 956.7099999999999 14568.999999999995 957.1999999999999 14568.869999999995C957.6899999999999 14568.729999999996 958.2199999999999 14568.619999999995 958.77 14568.519999999995C959.3299999999999 14568.429999999995 959.9 14568.349999999995 960.51 14568.309999999996C961.11 14568.259999999997 961.72 14568.229999999996 962.33 14568.229999999996C962.96 14568.229999999996 963.57 14568.259999999997 964.1800000000001 14568.309999999996C964.7900000000001 14568.349999999997 965.3700000000001 14568.429999999997 965.9300000000001 14568.519999999995C966.49 14568.619999999995 967.0200000000001 14568.739999999994 967.5200000000001 14568.869999999995C968.0200000000001 14569.009999999995 968.4800000000001 14569.169999999995 968.9100000000001 14569.349999999995C969.09 14569.439999999995 969.21 14569.559999999994 969.2900000000001 14569.719999999996C969.3600000000001 14569.889999999996 969.44 14570.169999999996 969.5200000000001 14570.579999999996C969.58 14570.919999999996 969.6700000000001 14571.279999999997 969.7900000000001 14571.669999999996C969.9100000000001 14572.069999999996 970.1300000000001 14572.429999999997 970.46 14572.769999999997C970.74 14573.029999999997 971.14 14573.279999999997 971.6700000000001 14573.499999999996C972.2 14573.719999999996 972.7800000000001 14573.909999999996 973.4000000000001 14574.069999999996C974.0300000000001 14574.219999999996 974.6600000000001 14574.339999999997 975.2900000000001 14574.419999999996C975.9300000000001 14574.499999999996 976.4800000000001 14574.539999999997 976.96 14574.539999999997ZM962.37 14574.74C963.8100000000001 14574.74 965.15 14574.86 966.4 14575.119999999999C967.64 14575.369999999999 968.78 14575.749999999998 969.8299999999999 14576.249999999998C970.8799999999999 14576.749999999998 971.8199999999999 14577.369999999999 972.66 14578.119999999999C973.49 14578.859999999999 974.2199999999999 14579.73 974.85 14580.72C975.33 14581.46 975.71 14582.199999999999 975.99 14582.929999999998C976.27 14583.659999999998 976.48 14584.309999999998 976.62 14584.88C976.77 14585.449999999999 976.86 14585.92 976.9 14586.269999999999C976.9399999999999 14586.63 976.9599999999999 14586.81 976.9599999999999 14586.819999999998C976.9899999999999 14587.179999999998 976.9399999999999 14587.529999999997 976.8199999999999 14587.859999999999C976.6999999999999 14588.189999999999 976.52 14588.489999999998 976.28 14588.739999999998C976.04 14588.989999999998 975.75 14589.189999999999 975.43 14589.329999999998C975.0999999999999 14589.459999999997 974.76 14589.529999999999 974.4 14589.529999999999L950.3299999999999 14589.529999999999C949.9699999999999 14589.529999999999 949.6299999999999 14589.46 949.3 14589.329999999998C948.9799999999999 14589.189999999999 948.6999999999999 14588.989999999998 948.4599999999999 14588.739999999998C948.2099999999999 14588.489999999998 948.03 14588.189999999999 947.91 14587.859999999999C947.79 14587.529999999999 947.74 14587.179999999998 947.77 14586.819999999998C947.77 14586.809999999998 947.79 14586.629999999997 947.8299999999999 14586.269999999999C947.8699999999999 14585.919999999998 947.9699999999999 14585.449999999999 948.1099999999999 14584.88C948.2599999999999 14584.31 948.4699999999999 14583.66 948.7399999999999 14582.929999999998C949.0199999999999 14582.199999999999 949.3999999999999 14581.46 949.8799999999999 14580.72C950.5099999999999 14579.73 951.2399999999999 14578.859999999999 952.0799999999999 14578.119999999999C952.91 14577.369999999999 953.8599999999999 14576.749999999998 954.9 14576.249999999998C955.9499999999999 14575.749999999998 957.1 14575.369999999999 958.34 14575.119999999999C959.58 14574.859999999999 960.9200000000001 14574.74 962.37 14574.74ZM962.33 14566.37C961.64 14566.37 960.97 14566.400000000001 960.3100000000001 14566.45C959.6400000000001 14566.51 959.0100000000001 14566.59 958.3900000000001 14566.7C957.7800000000001 14566.810000000001 957.2 14566.94 956.6500000000001 14567.09C956.1000000000001 14567.25 955.5900000000001 14567.43 955.1000000000001 14567.64C954.4400000000002 14567.91 954.0100000000001 14568.31 953.8200000000002 14568.82C953.6300000000001 14569.33 953.4900000000001 14569.8 953.4100000000002 14570.22C953.3600000000002 14570.47 953.3100000000002 14570.699999999999 953.2500000000002 14570.92C953.2000000000003 14571.13 953.1000000000003 14571.3 952.9700000000003 14571.43C952.8500000000003 14571.550000000001 952.6100000000002 14571.68 952.2500000000002 14571.82C951.8900000000002 14571.96 951.4600000000003 14572.09 950.9800000000002 14572.22C950.4900000000002 14572.34 949.9700000000003 14572.449999999999 949.4100000000002 14572.529999999999C948.8600000000002 14572.619999999999 948.3200000000002 14572.659999999998 947.8000000000002 14572.659999999998C947.3500000000001 14572.659999999998 947.0300000000002 14572.629999999997 946.8600000000001 14572.579999999998C946.6800000000002 14572.519999999999 946.5900000000001 14572.489999999998 946.5800000000002 14572.479999999998C946.3700000000001 14572.269999999999 946.2100000000002 14572.029999999997 946.0800000000002 14571.759999999998C945.9500000000002 14571.479999999998 945.8800000000001 14571.199999999999 945.8500000000001 14570.919999999998C945.8300000000002 14570.599999999999 945.8800000000001 14570.279999999999 946.0000000000001 14569.979999999998C946.1200000000001 14569.669999999998 946.3100000000001 14569.379999999997 946.5800000000002 14569.119999999997C947.4000000000002 14568.299999999997 948.3700000000001 14567.559999999998 949.4900000000001 14566.909999999998C950.6200000000001 14566.259999999998 951.8600000000001 14565.709999999997 953.2100000000002 14565.249999999998C954.5600000000002 14564.789999999999 956.0000000000001 14564.449999999999 957.5300000000002 14564.209999999997C959.0700000000002 14563.979999999998 960.6500000000002 14563.859999999997 962.2800000000002 14563.859999999997C963.9300000000002 14563.859999999997 965.5200000000002 14563.979999999998 967.0700000000002 14564.219999999998C968.6200000000001 14564.459999999997 970.0700000000002 14564.809999999998 971.4400000000002 14565.269999999997C972.8000000000002 14565.729999999996 974.0500000000002 14566.289999999997 975.1800000000002 14566.949999999997C976.3200000000002 14567.609999999997 977.3100000000002 14568.359999999997 978.1400000000002 14569.189999999997C978.8000000000002 14569.849999999997 979.0400000000002 14570.499999999996 978.8700000000002 14571.129999999997C978.7000000000003 14571.759999999997 978.4600000000003 14572.229999999998 978.1700000000002 14572.509999999997C978.1600000000002 14572.529999999997 978.0700000000002 14572.559999999996 977.8900000000002 14572.609999999997C977.7200000000003 14572.669999999996 977.4100000000002 14572.699999999997 976.9600000000003 14572.699999999997C976.4600000000003 14572.699999999997 975.9300000000003 14572.649999999998 975.3700000000002 14572.569999999998C974.8100000000003 14572.479999999998 974.2800000000002 14572.379999999997 973.7800000000002 14572.249999999998C973.2900000000002 14572.129999999997 972.8600000000002 14571.989999999998 972.4900000000002 14571.849999999999C972.1300000000002 14571.699999999999 971.8900000000002 14571.569999999998 971.7800000000002 14571.449999999999C971.6500000000002 14571.32 971.5500000000002 14571.14 971.4900000000002 14570.929999999998C971.4300000000003 14570.72 971.3800000000002 14570.489999999998 971.3300000000003 14570.239999999998C971.2400000000002 14569.819999999998 971.1000000000003 14569.349999999999 970.9100000000003 14568.849999999999C970.7200000000003 14568.339999999998 970.2900000000003 14567.939999999999 969.6300000000003 14567.649999999998C969.1500000000003 14567.449999999997 968.6300000000003 14567.269999999999 968.0700000000004 14567.099999999999C967.5100000000004 14566.939999999999 966.9200000000004 14566.809999999998 966.3000000000004 14566.699999999999C965.6900000000004 14566.589999999998 965.0500000000004 14566.509999999998 964.3800000000005 14566.449999999999C963.7100000000005 14566.4 963.0300000000004 14566.369999999999 962.3300000000005 14566.369999999999ZM962.37 14587.69C963.14 14587.69 963.86 14587.54 964.53 14587.25C965.1899999999999 14586.95 965.78 14586.56 966.29 14586.06C966.79 14585.56 967.1899999999999 14584.97 967.48 14584.289999999999C967.77 14583.619999999999 967.91 14582.9 967.91 14582.14C967.91 14581.369999999999 967.77 14580.65 967.48 14579.98C967.19 14579.3 966.79 14578.71 966.29 14578.21C965.78 14577.71 965.1899999999999 14577.32 964.53 14577.019999999999C963.86 14576.729999999998 963.14 14576.579999999998 962.37 14576.579999999998C961.6 14576.579999999998 960.88 14576.729999999998 960.21 14577.019999999999C959.5400000000001 14577.319999999998 958.95 14577.71 958.45 14578.21C957.94 14578.71 957.5400000000001 14579.3 957.25 14579.98C956.96 14580.65 956.82 14581.369999999999 956.82 14582.14C956.82 14582.9 956.96 14583.619999999999 957.25 14584.289999999999C957.54 14584.97 957.94 14585.56 958.45 14586.06C958.95 14586.56 959.5400000000001 14586.949999999999 960.21 14587.25C960.88 14587.54 961.6 14587.69 962.37 14587.69ZM962.37 14578.44C962.87 14578.44 963.35 14578.54 963.8 14578.730000000001C964.25 14578.920000000002 964.65 14579.19 964.99 14579.520000000002C965.32 14579.860000000002 965.59 14580.250000000002 965.78 14580.700000000003C965.97 14581.140000000003 966.0699999999999 14581.630000000003 966.0699999999999 14582.140000000003C966.0699999999999 14582.650000000003 965.9699999999999 14583.130000000003 965.78 14583.580000000004C965.5899999999999 14584.030000000004 965.3199999999999 14584.420000000004 964.99 14584.750000000004C964.65 14585.090000000004 964.25 14585.350000000004 963.8 14585.540000000005C963.3499999999999 14585.730000000005 962.87 14585.830000000005 962.37 14585.830000000005C961.86 14585.830000000005 961.38 14585.730000000005 960.93 14585.540000000005C960.4799999999999 14585.350000000004 960.0799999999999 14585.090000000004 959.75 14584.750000000004C959.41 14584.420000000004 959.14 14584.030000000004 958.95 14583.580000000004C958.76 14583.130000000003 958.6600000000001 14582.650000000003 958.6600000000001 14582.140000000003C958.6600000000001 14581.630000000003 958.7600000000001 14581.140000000003 958.95 14580.700000000003C959.1400000000001 14580.250000000002 959.4100000000001 14579.860000000002 959.75 14579.520000000002C960.08 14579.190000000002 960.48 14578.920000000002 960.93 14578.730000000001C961.38 14578.54 961.8599999999999 14578.44 962.37 14578.44Z " fill="#d1b38c" fill-opacity="1" transform="matrix(1,0,0,1,-943,-14562)"></path></svg>