<svg id="SvgjsSvg1019" xmlns="http://www.w3.org/2000/svg" version="1.1" xmlns:xlink="http://www.w3.org/1999/xlink" xmlns:svgjs="http://svgjs.com/svgjs" width="41" height="41"><defs id="SvgjsDefs1020"><clipPath id="SvgjsClipPath1023"><path id="SvgjsPath1022" d="M1671 7872.5C1671 7861.17816 1680.17816 7852 1691.5 7852C1702.82184 7852 1712 7861.17816 1712 7872.5C1712 7883.82184 1702.82184 7893 1691.5 7893C1680.17816 7893 1671 7883.82184 1671 7872.5Z " fill="#ffffff"></path></clipPath></defs><path id="SvgjsPath1021" d="M1671 7872.5C1671 7861.17816 1680.17816 7852 1691.5 7852C1702.82184 7852 1712 7861.17816 1712 7872.5C1712 7883.82184 1702.82184 7893 1691.5 7893C1680.17816 7893 1671 7883.82184 1671 7872.5Z " fill-opacity="0" fill="#ffffff" stroke-dasharray="0" stroke-linejoin="miter" stroke-linecap="butt" stroke-opacity="1" stroke="#727272" stroke-miterlimit="50" stroke-width="6" clip-path="url(&quot;#SvgjsClipPath1023&quot;)" transform="matrix(1,0,0,1,-1671,-7852)"></path><path id="SvgjsPath1024" d="M1690.25 7867.25L1695.55 7872.55 " fill-opacity="0" fill="#ffffff" stroke-dasharray="0" stroke-linejoin="miter" stroke-linecap="square" stroke-opacity="1" stroke="#d1b38c" stroke-miterlimit="50" stroke-width="1" transform="matrix(1,0,0,1,-1671,-7852)"></path><path id="SvgjsPath1025" d="M1695.55 7872.25L1690.25 7877.55 " fill-opacity="0" fill="#ffffff" stroke-dasharray="0" stroke-linejoin="miter" stroke-linecap="square" stroke-opacity="1" stroke="#d1b38c" stroke-miterlimit="50" stroke-width="1" transform="matrix(1,0,0,1,-1671,-7852)"></path></svg>