<svg id="SvgjsSvg1080" xmlns="http://www.w3.org/2000/svg" version="1.1" xmlns:xlink="http://www.w3.org/1999/xlink" xmlns:svgjs="http://svgjs.com/svgjs" width="65" height="65"><defs id="SvgjsDefs1081"></defs><path id="SvgjsPath1082" d="M1588.54 4737.42L1587.17 4735.84L1585.76 4737.07L1585.76 4723L1583.66 4723L1583.66 4738.91L1579.47 4742.57L1575.27 4738.91L1575.27 4729.29L1573.18 4729.29L1573.18 4737.07L1571.77 4735.84L1570.3899999999999 4737.42L1571.8799999999999 4738.7300000000005L1525.9999999999998 4738.7300000000005L1525.9999999999998 4772.27L1529.9499999999998 4772.27L1528.4599999999998 4773.580000000001L1529.84 4775.160000000001L1531.24 4773.930000000001L1531.24 4788.000000000001L1533.34 4788.000000000001L1533.34 4772.090000000001L1537.53 4768.430000000001L1541.73 4772.090000000001L1541.73 4781.710000000001L1543.82 4781.710000000001L1543.82 4773.930000000001L1545.23 4775.160000000001L1546.6100000000001 4773.580000000001L1545.1200000000001 4772.27L1591.0000000000002 4772.27L1591.0000000000002 4738.7300000000005L1587.0500000000002 4738.7300000000005ZM1581.64 4770.18L1542.7700000000002 4770.18L1542.7700000000002 4770.2300000000005L1537.5300000000002 4765.64L1534.7900000000002 4768.04C1533.66 4765.26 1531.1000000000001 4763.29 1528.1000000000001 4762.91L1528.1000000000001 4748.09C1531.88 4747.610000000001 1534.89 4744.610000000001 1535.3600000000001 4740.82L1574.23 4740.82L1574.23 4740.7699999999995L1579.47 4745.36L1582.21 4742.96C1583.3400000000001 4745.74 1585.9 4747.71 1588.9 4748.09L1588.9 4762.91C1585.1200000000001 4763.389999999999 1582.1100000000001 4766.389999999999 1581.64 4770.18ZM1533.24 4740.82C1532.8 4743.45 1530.73 4745.53 1528.1 4745.969999999999L1528.1 4740.82ZM1583.76 4770.18C1584.2 4767.55 1586.27 4765.47 1588.9 4765.030000000001L1588.9 4770.18ZM1532.29 4770.18L1528.1 4770.18L1528.1 4765.030000000001C1530.48 4765.43 1532.4199999999998 4767.18 1533.08 4769.540000000001L1532.29 4770.2300000000005ZM1583.92 4741.46L1584.71 4740.77L1584.71 4740.820000000001L1588.9 4740.820000000001L1588.9 4745.97C1586.52 4745.570000000001 1584.5800000000002 4743.820000000001 1583.92 4741.46Z " fill="#6a6a6a" fill-opacity="1" transform="matrix(1,0,0,1,-1526,-4723)"></path><path id="SvgjsPath1083" d="M1546 4755.58C1546 4762.5199999999995 1551.64 4768.16 1558.58 4768.16C1565.52 4768.16 1571.1599999999999 4762.5199999999995 1571.1599999999999 4755.58C1571.1599999999999 4748.64 1565.5199999999998 4743 1558.58 4743C1551.6399999999999 4743 1546 4748.64 1546 4755.58ZM1548.1 4755.58C1548.1 4749.8 1552.8 4745.1 1558.58 4745.1C1564.36 4745.1 1569.06 4749.8 1569.06 4755.58C1569.06 4761.36 1564.36 4766.0599999999995 1558.58 4766.0599999999995C1552.8 4766.0599999999995 1548.1 4761.36 1548.1 4755.58Z " fill="#6a6a6a" fill-opacity="1" transform="matrix(1,0,0,1,-1526,-4723)"></path><path id="SvgjsPath1084" d="M1559.81 4749.1L1559.29 4749.1L1559.29 4747L1557.19 4747L1557.19 4749.1L1556.67 4749.1C1554.65 4749.1 1553 4750.740000000001 1553 4752.77C1553 4754.790000000001 1554.65 4756.4400000000005 1556.67 4756.4400000000005L1559.8100000000002 4756.4400000000005C1560.68 4756.4400000000005 1561.39 4757.14 1561.39 4758.01C1561.39 4758.88 1560.68 4759.58 1559.8100000000002 4759.58L1556.67 4759.58C1555.8000000000002 4759.58 1555.1000000000001 4758.88 1555.1000000000001 4758.01L1555.1000000000001 4757.4800000000005L1553.0000000000002 4757.4800000000005L1553.0000000000002 4758.01C1553.0000000000002 4760.030000000001 1554.6500000000003 4761.68 1556.6700000000003 4761.68L1557.1900000000003 4761.68L1557.1900000000003 4763.77L1559.2900000000002 4763.77L1559.2900000000002 4761.68L1559.8100000000002 4761.68C1561.8400000000001 4761.68 1563.4800000000002 4760.030000000001 1563.4800000000002 4758.01C1563.4800000000002 4755.9800000000005 1561.8400000000001 4754.34 1559.8100000000002 4754.34L1556.67 4754.34C1555.8000000000002 4754.34 1555.1000000000001 4753.63 1555.1000000000001 4752.77C1555.1000000000001 4751.900000000001 1555.8000000000002 4751.1900000000005 1556.67 4751.1900000000005L1559.8100000000002 4751.1900000000005C1560.68 4751.1900000000005 1561.39 4751.900000000001 1561.39 4752.77L1561.39 4753.290000000001L1563.48 4753.290000000001L1563.48 4752.77C1563.48 4750.740000000001 1561.84 4749.1 1559.81 4749.1Z " fill="#6a6a6a" fill-opacity="1" transform="matrix(1,0,0,1,-1526,-4723)"></path><path id="SvgjsPath1085" d="M1536 4773L1536 4771L1538 4771L1538 4773Z " fill="#6a6a6a" fill-opacity="1" transform="matrix(1,0,0,1,-1526,-4723)"></path><path id="SvgjsPath1086" d="M1536 4777L1536 4775L1538 4775L1538 4777Z " fill="#6a6a6a" fill-opacity="1" transform="matrix(1,0,0,1,-1526,-4723)"></path><path id="SvgjsPath1087" d="M1536 4782L1536 4780L1538 4780L1538 4782Z " fill="#6a6a6a" fill-opacity="1" transform="matrix(1,0,0,1,-1526,-4723)"></path><path id="SvgjsPath1088" d="M1536 4786L1536 4784L1538 4784L1538 4786Z " fill="#6a6a6a" fill-opacity="1" transform="matrix(1,0,0,1,-1526,-4723)"></path><path id="SvgjsPath1089" d="M1541 4786L1541 4784L1543 4784L1543 4786Z " fill="#6a6a6a" fill-opacity="1" transform="matrix(1,0,0,1,-1526,-4723)"></path><path id="SvgjsPath1090" d="M1545 4786L1545 4784L1547 4784L1547 4786Z " fill="#6a6a6a" fill-opacity="1" transform="matrix(1,0,0,1,-1526,-4723)"></path><path id="SvgjsPath1091" d="M1549 4786L1549 4784L1551 4784L1551 4786Z " fill="#6a6a6a" fill-opacity="1" transform="matrix(1,0,0,1,-1526,-4723)"></path><path id="SvgjsPath1092" d="M1553 4786L1553 4784L1555 4784L1555 4786Z " fill="#6a6a6a" fill-opacity="1" transform="matrix(1,0,0,1,-1526,-4723)"></path><path id="SvgjsPath1093" d="M1557 4786L1557 4784L1559 4784L1559 4786Z " fill="#6a6a6a" fill-opacity="1" transform="matrix(1,0,0,1,-1526,-4723)"></path><path id="SvgjsPath1094" d="M1562 4786L1562 4784L1564 4784L1564 4786Z " fill="#6a6a6a" fill-opacity="1" transform="matrix(1,0,0,1,-1526,-4723)"></path><path id="SvgjsPath1095" d="M1566 4786L1566 4784L1568 4784L1568 4786Z " fill="#6a6a6a" fill-opacity="1" transform="matrix(1,0,0,1,-1526,-4723)"></path><path id="SvgjsPath1096" d="M1570 4786L1570 4784L1572 4784L1572 4786Z " fill="#6a6a6a" fill-opacity="1" transform="matrix(1,0,0,1,-1526,-4723)"></path><path id="SvgjsPath1097" d="M1574 4786L1574 4784L1576 4784L1576 4786Z " fill="#6a6a6a" fill-opacity="1" transform="matrix(1,0,0,1,-1526,-4723)"></path><path id="SvgjsPath1098" d="M1578 4786L1578 4784L1580 4784L1580 4786Z " fill="#6a6a6a" fill-opacity="1" transform="matrix(1,0,0,1,-1526,-4723)"></path><path id="SvgjsPath1099" d="M1583 4786L1583 4784L1585 4784L1585 4786Z " fill="#6a6a6a" fill-opacity="1" transform="matrix(1,0,0,1,-1526,-4723)"></path><path id="SvgjsPath1100" d="M1587 4786L1587 4784L1589 4784L1589 4786Z " fill="#6a6a6a" fill-opacity="1" transform="matrix(1,0,0,1,-1526,-4723)"></path><path id="SvgjsPath1101" d="M1578 4740L1578 4738L1580 4738L1580 4740Z " fill="#6a6a6a" fill-opacity="1" transform="matrix(1,0,0,1,-1526,-4723)"></path><path id="SvgjsPath1102" d="M1578 4735L1578 4733L1580 4733L1580 4735Z " fill="#6a6a6a" fill-opacity="1" transform="matrix(1,0,0,1,-1526,-4723)"></path><path id="SvgjsPath1103" d="M1578 4731L1578 4729L1580 4729L1580 4731Z " fill="#6a6a6a" fill-opacity="1" transform="matrix(1,0,0,1,-1526,-4723)"></path><path id="SvgjsPath1104" d="M1578 4727L1578 4725L1580 4725L1580 4727Z " fill="#6a6a6a" fill-opacity="1" transform="matrix(1,0,0,1,-1526,-4723)"></path><path id="SvgjsPath1105" d="M1574 4727L1574 4725L1576 4725L1576 4727Z " fill="#6a6a6a" fill-opacity="1" transform="matrix(1,0,0,1,-1526,-4723)"></path><path id="SvgjsPath1106" d="M1570 4727L1570 4725L1572 4725L1572 4727Z " fill="#6a6a6a" fill-opacity="1" transform="matrix(1,0,0,1,-1526,-4723)"></path><path id="SvgjsPath1107" d="M1566 4727L1566 4725L1568 4725L1568 4727Z " fill="#6a6a6a" fill-opacity="1" transform="matrix(1,0,0,1,-1526,-4723)"></path><path id="SvgjsPath1108" d="M1562 4727L1562 4725L1564 4725L1564 4727Z " fill="#6a6a6a" fill-opacity="1" transform="matrix(1,0,0,1,-1526,-4723)"></path><path id="SvgjsPath1109" d="M1557 4727L1557 4725L1559 4725L1559 4727Z " fill="#6a6a6a" fill-opacity="1" transform="matrix(1,0,0,1,-1526,-4723)"></path><path id="SvgjsPath1110" d="M1553 4727L1553 4725L1555 4725L1555 4727Z " fill="#6a6a6a" fill-opacity="1" transform="matrix(1,0,0,1,-1526,-4723)"></path><path id="SvgjsPath1111" d="M1549 4727L1549 4725L1551 4725L1551 4727Z " fill="#6a6a6a" fill-opacity="1" transform="matrix(1,0,0,1,-1526,-4723)"></path><path id="SvgjsPath1112" d="M1545 4727L1545 4725L1547 4725L1547 4727Z " fill="#6a6a6a" fill-opacity="1" transform="matrix(1,0,0,1,-1526,-4723)"></path><path id="SvgjsPath1113" d="M1541 4727L1541 4725L1543 4725L1543 4727Z " fill="#6a6a6a" fill-opacity="1" transform="matrix(1,0,0,1,-1526,-4723)"></path><path id="SvgjsPath1114" d="M1536 4727L1536 4725L1538 4725L1538 4727Z " fill="#6a6a6a" fill-opacity="1" transform="matrix(1,0,0,1,-1526,-4723)"></path><path id="SvgjsPath1115" d="M1532 4727L1532 4725L1534 4725L1534 4727Z " fill="#6a6a6a" fill-opacity="1" transform="matrix(1,0,0,1,-1526,-4723)"></path><path id="SvgjsPath1116" d="M1528 4727L1528 4725L1530 4725L1530 4727Z " fill="#6a6a6a" fill-opacity="1" transform="matrix(1,0,0,1,-1526,-4723)"></path><path id="SvgjsPath1117" d="M1573 4756L1573 4754L1575 4754L1575 4756Z " fill="#6a6a6a" fill-opacity="1" transform="matrix(1,0,0,1,-1526,-4723)"></path><path id="SvgjsPath1118" d="M1577 4756L1577 4754L1579 4754L1579 4756Z " fill="#6a6a6a" fill-opacity="1" transform="matrix(1,0,0,1,-1526,-4723)"></path><path id="SvgjsPath1119" d="M1538 4756L1538 4754L1540 4754L1540 4756Z " fill="#6a6a6a" fill-opacity="1" transform="matrix(1,0,0,1,-1526,-4723)"></path><path id="SvgjsPath1120" d="M1542 4756L1542 4754L1544 4754L1544 4756Z " fill="#6a6a6a" fill-opacity="1" transform="matrix(1,0,0,1,-1526,-4723)"></path></svg>