<svg id="SvgjsSvg1000" xmlns="http://www.w3.org/2000/svg" version="1.1" xmlns:xlink="http://www.w3.org/1999/xlink" xmlns:svgjs="http://svgjs.com/svgjs" width="41" height="41"><defs id="SvgjsDefs1001"><clipPath id="SvgjsClipPath1010"><path id="SvgjsPath1009" d="M390 801.5C390 790.17816 399.17816 781 410.5 781C421.82184 781 431 790.17816 431 801.5C431 812.82184 421.82184 822 410.5 822C399.17816 822 390 812.82184 390 801.5Z " fill="#ffffff"></path></clipPath></defs><path id="SvgjsPath1007" d="M396 801.5C396 793.49187 402.49187 787 410.5 787C418.50813 787 425 793.49187 425 801.5C425 809.50813 418.50813 816 410.5 816C402.49187 816 396 809.50813 396 801.5Z " fill="#ff8c00" fill-opacity="1" transform="matrix(1,0,0,1,-390,-781)"></path><path id="SvgjsPath1008" d="M390 801.5C390 790.17816 399.17816 781 410.5 781C421.82184 781 431 790.17816 431 801.5C431 812.82184 421.82184 822 410.5 822C399.17816 822 390 812.82184 390 801.5Z " fill-opacity="0" fill="#ffffff" stroke-dasharray="0" stroke-linejoin="miter" stroke-linecap="butt" stroke-opacity="1" stroke="#ffffff" stroke-miterlimit="50" stroke-width="6" clip-path="url(&quot;#SvgjsClipPath1010&quot;)" transform="matrix(1,0,0,1,-390,-781)"></path><path id="SvgjsPath1011" d="M411 807L411 797 " fill-opacity="0" fill="#ffffff" stroke-dasharray="0" stroke-linejoin="miter" stroke-linecap="square" stroke-opacity="1" stroke="#ffffff" stroke-miterlimit="50" stroke-width="1" transform="matrix(1,0,0,1,-390,-781)"></path><path id="SvgjsPath1012" d="M405.5 801.5L415.5 801.5 " fill-opacity="0" fill="#ffffff" stroke-dasharray="0" stroke-linejoin="miter" stroke-linecap="square" stroke-opacity="1" stroke="#ffffff" stroke-miterlimit="50" stroke-width="1" transform="matrix(1,0,0,1,-390,-781)"></path></svg>