<svg id="SvgjsSvg1000" xmlns="http://www.w3.org/2000/svg" version="1.1" xmlns:xlink="http://www.w3.org/1999/xlink" xmlns:svgjs="http://svgjs.com/svgjs" width="41" height="41"><defs id="SvgjsDefs1001"><clipPath id="SvgjsClipPath1009"><path id="SvgjsPath1008" d="M443 2361.5C443 2350.17816 452.17816 2341 463.5 2341C474.82184 2341 484 2350.17816 484 2361.5C484 2372.82184 474.82184 2382 463.5 2382C452.17816 2382 443 2372.82184 443 2361.5Z " fill="#ffffff"></path></clipPath></defs><path id="SvgjsPath1007" d="M443 2361.5C443 2350.17816 452.17816 2341 463.5 2341C474.82184 2341 484 2350.17816 484 2361.5C484 2372.82184 474.82184 2382 463.5 2382C452.17816 2382 443 2372.82184 443 2361.5Z " fill-opacity="0" fill="#ffffff" stroke-dasharray="0" stroke-linejoin="miter" stroke-linecap="butt" stroke-opacity="1" stroke="#ffffff" stroke-miterlimit="50" stroke-width="6" clip-path="url(&quot;#SvgjsClipPath1009&quot;)" transform="matrix(1,0,0,1,-443,-2341)"></path><path id="SvgjsPath1010" d="M464 2367L464 2357 " fill-opacity="0" fill="#ffffff" stroke-dasharray="0" stroke-linejoin="miter" stroke-linecap="square" stroke-opacity="1" stroke="#ffffff" stroke-miterlimit="50" stroke-width="1" transform="matrix(1,0,0,1,-443,-2341)"></path><path id="SvgjsPath1011" d="M458.5 2361.5L468.5 2361.5 " fill-opacity="0" fill="#ffffff" stroke-dasharray="0" stroke-linejoin="miter" stroke-linecap="square" stroke-opacity="1" stroke="#ffffff" stroke-miterlimit="50" stroke-width="1" transform="matrix(1,0,0,1,-443,-2341)"></path></svg>