<svg id="SvgjsSvg1012" xmlns="http://www.w3.org/2000/svg" version="1.1" xmlns:xlink="http://www.w3.org/1999/xlink" xmlns:svgjs="http://svgjs.com/svgjs" width="41" height="41"><defs id="SvgjsDefs1013"><clipPath id="SvgjsClipPath1016"><path id="SvgjsPath1015" d="M1438 2361.5C1438 2350.17816 1447.17816 2341 1458.5 2341C1469.82184 2341 1479 2350.17816 1479 2361.5C1479 2372.82184 1469.82184 2382 1458.5 2382C1447.17816 2382 1438 2372.82184 1438 2361.5Z " fill="#ffffff"></path></clipPath></defs><path id="SvgjsPath1014" d="M1438 2361.5C1438 2350.17816 1447.17816 2341 1458.5 2341C1469.82184 2341 1479 2350.17816 1479 2361.5C1479 2372.82184 1469.82184 2382 1458.5 2382C1447.17816 2382 1438 2372.82184 1438 2361.5Z " fill-opacity="0" fill="#ffffff" stroke-dasharray="0" stroke-linejoin="miter" stroke-linecap="butt" stroke-opacity="1" stroke="#ffffff" stroke-miterlimit="50" stroke-width="6" clip-path="url(&quot;#SvgjsClipPath1016&quot;)" transform="matrix(1,0,0,1,-1438,-2341)"></path><path id="SvgjsPath1017" d="M1444 2361.5C1444 2353.49187 1450.49187 2347 1458.5 2347C1466.50813 2347 1473 2353.49187 1473 2361.5C1473 2369.50813 1466.50813 2376 1458.5 2376C1450.49187 2376 1444 2369.50813 1444 2361.5Z " fill="#ffffff" fill-opacity="1" transform="matrix(1,0,0,1,-1438,-2341)"></path><path id="SvgjsPath1018" d="M1459 2367L1459 2357 " fill-opacity="0" fill="#ffffff" stroke-dasharray="0" stroke-linejoin="miter" stroke-linecap="square" stroke-opacity="1" stroke="#111111" stroke-miterlimit="50" stroke-width="1" transform="matrix(1,0,0,1,-1438,-2341)"></path><path id="SvgjsPath1019" d="M1453.5 2361.5L1463.5 2361.5 " fill-opacity="0" fill="#ffffff" stroke-dasharray="0" stroke-linejoin="miter" stroke-linecap="square" stroke-opacity="1" stroke="#111111" stroke-miterlimit="50" stroke-width="1" transform="matrix(1,0,0,1,-1438,-2341)"></path></svg>